<?xml version="1.0" standalone="yes"?>
<svg xmlns="http://www.w3.org/2000/svg" width="453" height="453">
<path style="fill:#020202; stroke:none;" d="M0 0L0 453L453 453L453 0L0 0z"/>
<path style="fill:#4daf51; stroke:none;" d="M236 15L237 18L238 18L238 15L236 15z"/>
<path style="fill:#2b5e2d; stroke:none;" d="M236 16C235.677 19.1876 237.808 22.7603 241 20L242 20L243 22L244 19L238 18L236 16M207 18L206 21L209 19L207 18M221 18L222 19L221 18M223.333 18.6667L223.667 19.3333L223.333 18.6667M229 18L230 19L229 18z"/>
<path style="fill:#4daf51; stroke:none;" d="M239 18L240 19L239 18z"/>
<path style="fill:#2b5e2d; stroke:none;" d="M211 19L211 20L215 20L211 19z"/>
<path style="fill:#4daf51; stroke:none;" d="M169 28L158 30L158 32L119 49L119 50L124 50L109 65C104.379 65.5876 100.46 68.4989 99 73L92 76L76.2176 94.5795L70 108L70 113L62 119L56 131L50 143L46 142L46 143L50 144L42 155L42 156C44.607 157.564 44.3497 158.587 42 158L44 160L44 161L41 170L38 182L39.6667 185L38 212L42 212L40 220L42 220L38 244C41.1528 251.003 40.0026 260.489 39 268C43.8086 274.316 42.8951 290.24 42 298C44.8507 298 44.9826 304.322 43 306L43 307C51.1411 315.581 48.6435 331.638 52.7207 342.3C55.0198 348.313 60.3775 354.883 61 361L66 367L68 366L83 387L114.09 408.045L152 418L151 416L152 416L178 424L181 423L182 426L184 427L189 428L190 428C193.667 426.807 196.05 427.512 199 430L217 431L236 434L252 433L267 430L276.08 428.352L296 422L307 417L305 414L322 413L332 409C332.673 405.38 334.537 403.991 338 403L341 399L341 395L345 396L344 392L356 385L359 383L356 380C358.64 373.035 361.816 367.761 369 365L369 364L367 352L370 351L367 345L370 346L373 343L373 338L371 338L374 335L372 332L376 332L376 331L371 330L371 328L375 327L376 330L377 330L377 326L372 322L374 317L382 326L383 326L377 312L382 311L380 309L380 308L381 305L383 307L389 310L385 302L386 297L392 299L392 296L390 296L390 295L391 294L387 289L391 280L387 278L387 277L392 276L397 280L396 284L397 284L398 279L389 270L391 268L392 268L395 270L393 272L394 274L398 277L401 276L393 265L394 262L397 264L396 258L400 260L400 257L393 248L401 252L393 243L400 243L398 247C402.666 247.524 405.184 249.065 405 254L409 252L405 247L401 243L403 239L399 238L399 237L401 236L395 231L395 230L399 228C399.932 232.969 406.862 234.312 408 229L401 228L401 227L405 227L405 226L402 223L398 224L403 217L395 213L395 212L398 212L398 205L395 206L392 203L392 202L396 202L391 196L392 193L388 189C391.025 190.343 394.328 194.011 397 191L390 187L392 184L393 184L395 186L394 181L390 176L393 175L393 174L385 164L387 160L395 167L396 167L390 153L388 150L393 151L392 153L394 157L397 154L396 152L393 148L388 149L386 143L387 143L390 146L385 137L389 138L383 132L384 129L385 129L385 132L391 135L392 131L388 131L388 130L391 130L390 127L388 129L385 127L387 123C380.326 123 376.561 111.757 377 110C372.219 107.013 369.947 101.458 369 96L368 94C362.313 91.1135 356.636 84.6032 358 78L350 76L351 72L348 69L344 69C342.033 62.8513 319.574 48.4637 313 48L301 38C294.591 38.8658 282.066 28.4493 277 34L276 34C271.587 27.5759 260.752 26.9349 254 24L254 26L250 21C245.222 22.5558 239.963 22.3482 236 19L185.011 24.7037L169 28z"/>
<path style="fill:#2b5e2d; stroke:none;" d="M232.667 19.3333L233.333 19.6667L232.667 19.3333z"/>
<path style="fill:#4daf51; stroke:none;" d="M237 19L238 20L237 19z"/>
<path style="fill:#2b5e2d; stroke:none;" d="M202 20L202 22L204 20L202 20z"/>
<path style="fill:#020202; stroke:none;" d="M241 20L242 21L241 20z"/>
<path style="fill:#2b5e2d; stroke:none;" d="M245 20L246 23L249 21L245 20z"/>
<path style="fill:#9e9f9e; stroke:none;" d="M201 22L202 23L201 22z"/>
<path style="fill:#2b5e2d; stroke:none;" d="M244 22L245 23L244 22M250 22L254 26L255 23L250 22z"/>
<path style="fill:#020202; stroke:none;" d="M211 23L212 24L211 23z"/>
<path style="fill:#2b5e2d; stroke:none;" d="M256 23L257 24L256 23M172 24L171 26L173 26L172 24M180 26L183 25L180 26z"/>
<path style="fill:#9e9f9e; stroke:none;" d="M186 24L187 25L186 24z"/>
<path style="fill:#2b5e2d; stroke:none;" d="M255 24L256 25L255 24M256 25L256 26L264 28L256 25z"/>
<path style="fill:#020202; stroke:none;" d="M244 25L245 26L244 25M259 25L260 26L259 25z"/>
<path style="fill:#2b5e2d; stroke:none;" d="M168.333 26.6667L168.667 27.3333L168.333 26.6667M244 26L245 27L244 26M259 27L260 28L259 27M163 28L164 29L163 28M156 29L158 32L156 29M162 29L163 30L162 29M159 30L160 31L159 30M155 31L156 32L155 31M278 31L279 32L278 31M153.667 32.3333L154.333 32.6667L153.667 32.3333M281 32L282 33L281 32M149 33L150 34L149 33M152 33L153 34L152 33M283 33L284 34L283 33M151 34L152 35L151 34M287 34L288 35L287 34M289.667 34.3333L290.333 34.6667L289.667 34.3333M144 35L144 36L148 36L144 35M292 35L296 38L296 37L292 35M139 36L142 38L139 36M143 36L144 37L143 36M136 38L136 39L139 39L136 38M297.667 38.3333L298.333 38.6667L297.667 38.3333M301.667 39.3333L302.333 39.6667L301.667 39.3333M133 40L134 41L133 40M303 40L304 41L303 40M305 41L307 43L307 41L305 41M308 43L309 44L308 43M127.667 44.3333L128.333 44.6667L127.667 44.3333M309 44L310 45L309 44M126 45L123 49L126 45M312 45L313 46L312 45M120 46L121 47L120 46M313.333 46.6667L313.667 47.3333L313.333 46.6667M121 47L122 48L121 47z"/>
<path style="fill:#020202; stroke:none;" d="M165 47L166 48L165 47z"/>
<path style="fill:#2b5e2d; stroke:none;" d="M315 47L316 48L315 47M316 48L317 49L316 48z"/>
<path style="fill:#4daf51; stroke:none;" d="M115 49L113 52L113 53L118 53L117 49L115 49z"/>
<path style="fill:#2b5e2d; stroke:none;" d="M121.667 49.3333L122.333 49.6667L121.667 49.3333M117.333 50.6667L117.667 51.3333L117.333 50.6667M123 50L124 51L123 50M121 51L121 53L123 51L121 51M118.333 52.6667L118.667 53.3333L118.333 52.6667M115 53L115 55L117 53L115 53M120.333 53.6667L120.667 54.3333L120.333 53.6667M323 53L324 54L323 53M118 55L117 57L119 57L118 55M116 57L117 58L116 57M328 57L329 58L328 57z"/>
<path style="fill:#020202; stroke:none;" d="M213 59L214 60L213 59z"/>
<path style="fill:#2b5e2d; stroke:none;" d="M111.667 60.3333L112.333 60.6667L111.667 60.3333M334 61L335 62L334 61M336 61L337 62L336 61M109 62L110 63L109 62z"/>
<path style="fill:#020202; stroke:none;" d="M139 62L140 63L139 62z"/>
<path style="fill:#2b5e2d; stroke:none;" d="M339 63L340 64L339 63M108 64L109 65L108 64M340 64L341 65L340 64M342 64L343 65L342 64M344 67L347 69L347 68L344 67M101 68L102 69L101 68z"/>
<path style="fill:#020202; stroke:none;" d="M323 68L324 69L323 68z"/>
<path style="fill:#2b5e2d; stroke:none;" d="M99.6667 69.3333L100.333 69.6667L99.6667 69.3333M348 69L347 70L351 74L352 74L348 69M98 70L98 73L99 73L98 70M91 74L95 76L97 72L91 74z"/>
<path style="fill:#020202; stroke:none;" d="M234 73L235 74L234 73z"/>
<path style="fill:#2b5e2d; stroke:none;" d="M350 74L354 77L354 76L350 74z"/>
<path style="fill:#020202; stroke:none;" d="M236 75L237 76L236 75z"/>
<path style="fill:#2b5e2d; stroke:none;" d="M354 75L355 76L354 75M89 76L90 80L87 78L85 81L88 81L87 84C89.0295 82.7732 92.2475 81.129 90 79L90 78L93 78L89 76z"/>
<path style="fill:#020202; stroke:none;" d="M198 77L199 78L198 77z"/>
<path style="fill:#2b5e2d; stroke:none;" d="M226 77L227 78L226 77M228 77L228 78L232 78L228 77z"/>
<path style="fill:#020202; stroke:none;" d="M223 81L219 83L237 81C233.342 76.9616 226.405 76.2783 223 81z"/>
<path style="fill:#2b5e2d; stroke:none;" d="M233 77L234 78L233 77M354 77L354 78L360 79L354 77z"/>
<path style="fill:#4daf51; stroke:none;" d="M85 78L86 79L85 78z"/>
<path style="fill:#020202; stroke:none;" d="M90.6667 78.3333L91.3333 78.6667L90.6667 78.3333z"/>
<path style="fill:#2b5e2d; stroke:none;" d="M235 78L236 79L235 78M221 79L222 81L223 81L224 79L221 79M229 79L230 80L229 79M236 79L236 83L237 85L241 90L244 90L242 83L236 79M355 79L356 80L355 79M357 79L356 82L359 82L357 79z"/>
<path style="fill:#4daf51; stroke:none;" d="M86 80L87 81L86 80z"/>
<path style="fill:#2b5e2d; stroke:none;" d="M213 85L207 86L206 88L208 91L208 92C203.683 93.2141 204.366 96.2452 208 98L208 97L208 96L206 94L209 95L211 92L211 91L208 88L217 81L215 87L216 87L220 80C216.163 80.4916 213.744 80.9885 213 85M227 80L228 81L227 80z"/>
<path style="fill:#9e9f9e; stroke:none;" d="M228 80L229 81L228 80z"/>
<path style="fill:#fefefe; stroke:none;" d="M213 111L224.737 113.799L235 101L231 97L233 94L233 93L231 90L234 90L232 86C233.459 85.7083 235.968 81.9785 233 80C230.662 78.4411 226.798 81.5505 225 82C216.854 84.0365 205.431 92.0348 210 103C211.479 106.551 213.478 109.087 213 111z"/>
<path style="fill:#2b5e2d; stroke:none;" d="M234 80L235 81L234 80z"/>
<path style="fill:#020202; stroke:none;" d="M206 81L205 83L207 83L206 81M216 81L208 91C212.032 88.9435 216.736 86.075 216 81z"/>
<path style="fill:#4daf51; stroke:none;" d="M234 81L236 83L236 81L234 81z"/>
<path style="fill:#2b5e2d; stroke:none;" d="M84 82L85 83L84 82z"/>
<path style="fill:#020202; stroke:none;" d="M234 82L231 97C236.168 100.024 230.848 105.511 228 109L229 115L226 114C215.158 120.86 209.677 101.304 210 94L206 94L208 98L205 97C207.046 110.856 220.394 125.407 235.83 117.276C241.107 114.497 243.044 108.773 246 104L246 103L245 99L242 98L242 94L242 93C244.018 91.6114 243.284 89.9859 241 90L241 86L238 83L234 82z"/>
<path style="fill:#2b5e2d; stroke:none;" d="M83.3333 83.6667L83.6667 84.3333L83.3333 83.6667M85 83L85 85L87 85L85 83z"/>
<path style="fill:#4daf51; stroke:none;" d="M219 83L220 84L219 83z"/>
<path style="fill:#020202; stroke:none;" d="M240 83L241 84L240 83M125 84L125 86L127 86L125 84z"/>
<path style="fill:#4daf51; stroke:none;" d="M217 84L216 86L218 86L217 84z"/>
<path style="fill:#9e9f9e; stroke:none;" d="M218 84L219 85L218 84M233 84L234 85L233 84z"/>
<path style="fill:#2b5e2d; stroke:none;" d="M358 84C359.883 87.9834 363.31 93.1238 368 93L364 86L358 84z"/>
<path style="fill:#020202; stroke:none;" d="M128 86L129 87L128 86z"/>
<path style="fill:#9e9f9e; stroke:none;" d="M214.333 86.6667L214.667 87.3333L214.333 86.6667M232 86L234 88L232 86z"/>
<path style="fill:#2b5e2d; stroke:none;" d="M233 86L234 87L233 86M83 87L84 88L83 87z"/>
<path style="fill:#020202; stroke:none;" d="M207 87L208 88L207 87z"/>
<path style="fill:#4daf51; stroke:none;" d="M240.667 87.3333L241.333 87.6667L240.667 87.3333z"/>
<path style="fill:#2b5e2d; stroke:none;" d="M80.6667 88.3333L81.3333 88.6667L80.6667 88.3333z"/>
<path style="fill:#020202; stroke:none;" d="M133 89L133 90L138 91L138 89L133 89z"/>
<path style="fill:#2b5e2d; stroke:none;" d="M210.667 89.3333L211.333 89.6667L210.667 89.3333z"/>
<path style="fill:#9e9f9e; stroke:none;" d="M232 89L233 90L232 89z"/>
<path style="fill:#4daf51; stroke:none;" d="M209.667 90.3333L210.333 90.6667L209.667 90.3333z"/>
<path style="fill:#9e9f9e; stroke:none;" d="M211 90L212 91L211 90z"/>
<path style="fill:#2b5e2d; stroke:none;" d="M231 90L231 92L233 90L231 90z"/>
<path style="fill:#020202; stroke:none;" d="M365 90L366 91L365 90z"/>
<path style="fill:#2b5e2d; stroke:none;" d="M78 91L79 92L78 91z"/>
<path style="fill:#020202; stroke:none;" d="M206.667 91.3333L207.333 91.6667L206.667 91.3333z"/>
<path style="fill:#2b5e2d; stroke:none;" d="M243 91L244 92L243 91M77 92L78 93L77 92z"/>
<path style="fill:#4daf51; stroke:none;" d="M209.333 92.6667L209.667 93.3333L209.333 92.6667z"/>
<path style="fill:#9e9f9e; stroke:none;" d="M210 92L211 93L210 92z"/>
<path style="fill:#2b5e2d; stroke:none;" d="M232 92L233 93L232 92z"/>
<path style="fill:#020202; stroke:none;" d="M140 93L141 94L140 93M197 93L198 94L197 93z"/>
<path style="fill:#2b5e2d; stroke:none;" d="M240 93L241 94L240 93M242 93L242 94L245 94L242 93M75.6667 94.3333L76.3333 94.6667L75.6667 94.3333z"/>
<path style="fill:#020202; stroke:none;" d="M81 94L82 95L81 94z"/>
<path style="fill:#2b5e2d; stroke:none;" d="M74 95L75 96L74 95z"/>
<path style="fill:#020202; stroke:none;" d="M79 95L80 96L79 95M197 95L196 98L197 98L198 98L197 95z"/>
<path style="fill:#2b5e2d; stroke:none;" d="M243 95L242 98L244 101C246.417 98.7719 245.11 97.0629 243 95M367 95L367 96L368 99L374 106L377 102L370 98L371 96L367 95z"/>
<path style="fill:#020202; stroke:none;" d="M163 96L164 97L163 96z"/>
<path style="fill:#4daf51; stroke:none;" d="M206 96L207 97L206 96z"/>
<path style="fill:#9e9f9e; stroke:none;" d="M233.333 97.6667L233.667 98.3333L233.333 97.6667z"/>
<path style="fill:#2b5e2d; stroke:none;" d="M240 97L241 98L240 97z"/>
<path style="fill:#020202; stroke:none;" d="M244 97L245 98L244 97z"/>
<path style="fill:#2b5e2d; stroke:none;" d="M73 98L74 99L73 98z"/>
<path style="fill:#9e9f9e; stroke:none;" d="M209 98L210 99L209 98z"/>
<path style="fill:#2b5e2d; stroke:none;" d="M234.333 98.6667L234.667 99.3333L234.333 98.6667M206.667 99.3333L207.333 99.6667L206.667 99.3333M205 100L205 103L206 103L205 100M209.333 100.667L209.667 101.333L209.333 100.667z"/>
<path style="fill:#020202; stroke:none;" d="M252 100L253 101L252 100M370 100L371 101L370 100z"/>
<path style="fill:#2b5e2d; stroke:none;" d="M74 101L75 102L74 101M207 101L208 102L207 101M232 101L232 103L234 103L232 101z"/>
<path style="fill:#9e9f9e; stroke:none;" d="M233 101L234 102L233 101z"/>
<path style="fill:#4daf51; stroke:none;" d="M376 101L377 102L376 101z"/>
<path style="fill:#9e9f9e; stroke:none;" d="M231 102L232 103L231 102z"/>
<path style="fill:#2b5e2d; stroke:none;" d="M244.667 102.333L245.333 102.667L244.667 102.333z"/>
<path style="fill:#020202; stroke:none;" d="M372 102L373 103L372 102M374 102L375 103L374 102z"/>
<path style="fill:#2b5e2d; stroke:none;" d="M206.333 103.667L206.667 104.333L206.333 103.667M377 103L378 104L377 103z"/>
<path style="fill:#4daf51; stroke:none;" d="M378 103L379 104L378 103z"/>
<path style="fill:#2b5e2d; stroke:none;" d="M73 104L74 105L73 104z"/>
<path style="fill:#4daf51; stroke:none;" d="M375 104L376 105L375 104z"/>
<path style="fill:#2b5e2d; stroke:none;" d="M71 105L71 108L73 107L73 106L71 105M207 106L207 109L208 109L207 106M244 106L243 108L245 108L244 106z"/>
<path style="fill:#9e9f9e; stroke:none;" d="M229 107L230 108L229 107z"/>
<path style="fill:#020202; stroke:none;" d="M263 107L264 108L263 107M200.667 108.333L201.333 108.667L200.667 108.333z"/>
<path style="fill:#2b5e2d; stroke:none;" d="M229 108L230 109L229 108z"/>
<path style="fill:#020202; stroke:none;" d="M278 108L279 109L278 108z"/>
<path style="fill:#2b5e2d; stroke:none;" d="M69.6667 109.333L70.3333 109.667L69.6667 109.333z"/>
<path style="fill:#9e9f9e; stroke:none;" d="M212.667 109.333L213.333 109.667L212.667 109.333z"/>
<path style="fill:#2b5e2d; stroke:none;" d="M209 110L210 111L209 110M227 110L229 112L227 110z"/>
<path style="fill:#9e9f9e; stroke:none;" d="M228 110L229 111L228 110z"/>
<path style="fill:#2b5e2d; stroke:none;" d="M68 111L70 113L70 111L68 111z"/>
<path style="fill:#9e9f9e; stroke:none;" d="M215 111L216 112L215 111M227 111L227 114L229 113L229 112L227 111z"/>
<path style="fill:#2b5e2d; stroke:none;" d="M376.667 111.333L377.333 111.667L376.667 111.333M211 112L212 113L211 112M67 113L68 114L67 113M210 113L211 114L210 113z"/>
<path style="fill:#9e9f9e; stroke:none;" d="M217.667 113.333L218.333 113.667L217.667 113.333z"/>
<path style="fill:#2b5e2d; stroke:none;" d="M226 113L227 114L226 113M228.333 113.667L228.667 114.333L228.333 113.667M238 113L239 114L238 113M211.667 114.333L212.333 114.667L211.667 114.333M219.667 114.333L220.333 114.667L219.667 114.333z"/>
<path style="fill:#9e9f9e; stroke:none;" d="M221 114L224 116L224 115L221 114z"/>
<path style="fill:#2b5e2d; stroke:none;" d="M222 114L223 115L222 114M225 114L224 116L226 116L225 114M239 114L238 117L239 114M213 115L214 116L213 115M380 115L381 116L380 115M65.6667 116.333L66.3333 116.667L65.6667 116.333M214.667 116.333L215.333 116.667L214.667 116.333M64 117L63 120L64 117M216 117L217 118L216 117M220 117L221 118L220 117M235 117L236 118L235 117M382.333 117.667L382.667 118.333L382.333 117.667M224.667 118.333L225.333 118.667L224.667 118.333M227 118L228 119L227 118M233 118L234 119L233 118M380 118L381 119L380 118M61 119L61 123L62 123L61 119M230 119L230 120L233 120L230 119M384 119L385 120L384 119M382.333 120.667L382.667 121.333L382.333 120.667z"/>
<path style="fill:#4daf51; stroke:none;" d="M384 121L385 122L384 121z"/>
<path style="fill:#2b5e2d; stroke:none;" d="M383 122L384 123L383 122M386 122L387 123L386 122M60 123L60 126L61 126L60 123M387 123L385 127L389 129L387 123z"/>
<path style="fill:#020202; stroke:none;" d="M147 124L148 125L147 124M180 124L181 125L180 124M229 124L230 125L229 124M231 124L232 125L231 124M218 125L219 126L218 125M385 125L386 126L385 125z"/>
<path style="fill:#4daf51; stroke:none;" d="M387 125L388 126L387 125z"/>
<path style="fill:#2b5e2d; stroke:none;" d="M58 127L56 128L51 135L52 138L48 139L47 142L47 143C49.4751 142.487 49.5746 142.396 49 140L53 140L56 131L58 127M384 129L384 133L385 133L384 129M391 129L392 130L391 129M388 130L388 131L391 131L388 130z"/>
<path style="fill:#020202; stroke:none;" d="M385 132L386 133L385 132z"/>
<path style="fill:#2b5e2d; stroke:none;" d="M386 132L389 140L393 134L390 135L386 132M391 132L392 133L391 132z"/>
<path style="fill:#020202; stroke:none;" d="M113 134L114 135L113 134z"/>
<path style="fill:#2b5e2d; stroke:none;" d="M385 134L386 135L385 134z"/>
<path style="fill:#4daf51; stroke:none;" d="M52 135L53 136L52 135z"/>
<path style="fill:#2b5e2d; stroke:none;" d="M394 135L395 136L394 135z"/>
<path style="fill:#4daf51; stroke:none;" d="M47 137L48 138L47 137z"/>
<path style="fill:#2b5e2d; stroke:none;" d="M385 137L385 139L387 139L387 137L385 137M394 138L395 139L394 138z"/>
<path style="fill:#020202; stroke:none;" d="M137 139L138 140L137 139M354 139L356 141L354 139M49 140L50 141L49 140M70 140L71 141L70 140z"/>
<path style="fill:#2b5e2d; stroke:none;" d="M390 143L394 143L393 140L390 143M45 141L46 142L45 141M386 141L388 143L388 141L386 141z"/>
<path style="fill:#4daf51; stroke:none;" d="M392 141L393 142L392 141z"/>
<path style="fill:#020202; stroke:none;" d="M59 142L59 143L62 143L59 142z"/>
<path style="fill:#2b5e2d; stroke:none;" d="M44.3333 143.667L44.6667 144.333L44.3333 143.667M46 143L47 147L50 144L46 143M386 143L388 149L392 149L392 144L388 146L386 143M388 143L389 144L388 143z"/>
<path style="fill:#4daf51; stroke:none;" d="M392 146L395 143L392 146z"/>
<path style="fill:#020202; stroke:none;" d="M78 145L79 146L78 145z"/>
<path style="fill:#2b5e2d; stroke:none;" d="M393 145L393 151L394 151L395 145L393 145z"/>
<path style="fill:#4daf51; stroke:none;" d="M42 146L44 148L42 146z"/>
<path style="fill:#2b5e2d; stroke:none;" d="M43 146L44 147L43 146z"/>
<path style="fill:#020202; stroke:none;" d="M392 146L392 148L394 146L392 146z"/>
<path style="fill:#2b5e2d; stroke:none;" d="M42 147L43 148L42 147M44 147L38 158L41 158L41 163L37 164L38 172L41 170L44 161L44 160L42 150L44 155L45 155L44 147z"/>
<path style="fill:#020202; stroke:none;" d="M42 150L42 155C44.0339 153.231 44.0339 151.769 42 150z"/>
<path style="fill:#2b5e2d; stroke:none;" d="M388 150L390 153L396 165L397 165L394 159L396 156L394 157L394 156L392 153L393 151L388 150M213 151L210 153L210 154L217 153L217 152L215 151L213 151M218.333 151.667L218.667 152.333L218.333 151.667M394 151L395 152L394 151z"/>
<path style="fill:#4daf51; stroke:none;" d="M40 152L41 153L40 152z"/>
<path style="fill:#020202; stroke:none;" d="M215 152L216 153L215 152M217 152L220 154L220 155L210 154L212 157L211 164L214 165L210 172L210 173L215 175L210 179L214 183L210 188L215 204C209.721 207.548 214.327 215.018 215 220C209.871 219.97 212.949 235.983 213 240L217 240L217 241L211 243L216 249L215 253L212 254L215 264L213 267L216 267C211.343 272.439 212.182 277.486 214 284L211 285L214 297L217 296L217 297L213 298L211 307L211 308L212 314L216 316L213 315L213 318L209 328L205 344L205 348L202 350L184 356L184 361L187 364L188 364L191 359L211 347C210.845 341.034 214.076 332.451 218 328L216 325L218 276C212.239 265.504 225.345 245.645 218 235L218 234L217.988 217.093L215 183L216 183L217 187L218 187L215 171L211 173L217 164C213.791 158.222 222.899 156.831 227 157L235 157L233 159C234.744 165.194 235.372 168.361 232 174C237.962 180.321 231.911 188.522 231.518 196C231.254 201.007 233.653 206.224 235 211L233.863 221L237 247L230 252L230 255L234 260L230 261C233.018 267.254 233.805 274.291 232 281L237 283L232 320L234 325L228 324L227 328C235.891 334.853 228.283 345.719 229 356L220 370C221.029 374.8 225.496 371.839 229 371L228 368L231 369L231 366C236.79 365.792 239.781 360.387 240 355L241 347C244.758 344.521 246.105 332.836 244 329L244 328L244 322L244 321L244 320L246 320L245 316L247 316L246 311L243 312L247 289L244 289L244 284L246 275L243 274L243 272L246 271L243 266L243 260L246 262L247 253L245 250L245 249L248 235L248 234L249 227L247 225L244 221L245 219L250 219L245 210L248 210C246.869 205.78 246.588 204.029 250 201C247.636 198.342 243.197 194.512 246 191L246 189L244 188L244 183L244 182C246.313 178.342 246.252 157.785 243.117 154.564C240.334 151.705 233.379 153.035 230 154L217 152z"/>
<path style="fill:#2b5e2d; stroke:none;" d="M221 152L222 153L221 152M224.667 152.333L225.333 152.667L224.667 152.333M230.333 152.667L230.667 153.333L230.333 152.667M233 152L234 153L233 152M236 152L237 153L236 152M238 152L238 153L243 153L238 152M387 152L388 153L387 152M396 152L395 154L397 154L396 152z"/>
<path style="fill:#4daf51; stroke:none;" d="M216 153L216 155L218 155L216 153z"/>
<path style="fill:#2b5e2d; stroke:none;" d="M235 153L236 154L235 153M243 153L244 154L243 153M218.667 154.333L219.333 154.667L218.667 154.333z"/>
<path style="fill:#020202; stroke:none;" d="M390 154L391 155L390 154z"/>
<path style="fill:#4daf51; stroke:none;" d="M391 154L392 155L391 154z"/>
<path style="fill:#2b5e2d; stroke:none;" d="M397 154L398 155L397 154z"/>
<path style="fill:#4daf51; stroke:none;" d="M39.3333 155.667L39.6667 156.333L39.3333 155.667z"/>
<path style="fill:#020202; stroke:none;" d="M180 155L181 156L180 155z"/>
<path style="fill:#2b5e2d; stroke:none;" d="M209 155L209 157L211 155L209 155M217 155L218 156L217 155M227 155L228 156L227 155M229.667 155.333L230.333 155.667L229.667 155.333M238 155L239 156L238 155M382 156L382 157L388 159L386 155L382 156M396 155L397 156L396 155z"/>
<path style="fill:#020202; stroke:none;" d="M41 156L41 158L43 158L43 156L41 156z"/>
<path style="fill:#2b5e2d; stroke:none;" d="M43 156L43 159L44 159L43 156M125 156L126 157L125 156M224 156L225 157L224 156z"/>
<path style="fill:#fefefe; stroke:none;" d="M216 159C216.94 169.992 216.063 181.173 217.383 192.17C218.202 198.985 220.659 207.63 217 214L217 215C221.149 224.522 218.611 237.996 218.365 248.039C218.165 256.208 220.06 265.471 216 273L216 274C224.007 290.866 213.126 311.196 218 328C213.464 331.407 210.541 341.481 211 347L191 359L188 364L183 366C183.439 370.753 179.3 381.775 185.939 383.407C190.382 384.5 195.389 380.862 200 381L199 377L203 376L203 379L210 378L215 375C214.862 371.143 218.822 370.389 222 371L227 351L230 350L228 340C236.968 338.819 228.549 328.446 226 325L235 324L232 320L235 307L235 306C231.539 301.107 232.996 289.208 237 285L236 282L230 261L234 260L230 252L237 246L231.645 200L230 187L234 186L235 179L232 160L232 159L234 156L216 159z"/>
<path style="fill:#9e9f9e; stroke:none;" d="M227 156L228 157L227 156z"/>
<path style="fill:#2b5e2d; stroke:none;" d="M244 156L245 157L244 156M210 157L210 159L212 157L210 157M219 157L220 158L219 157z"/>
<path style="fill:#9e9f9e; stroke:none;" d="M220 157L221 158L220 157z"/>
<path style="fill:#2b5e2d; stroke:none;" d="M221 157L222 158L221 157M234.333 157.667L234.667 158.333L234.333 157.667z"/>
<path style="fill:#020202; stroke:none;" d="M393 157L394 158L393 157z"/>
<path style="fill:#2b5e2d; stroke:none;" d="M236 158L237 159L236 158M244 158L245 159L244 158z"/>
<path style="fill:#9e9f9e; stroke:none;" d="M232 159L233 160L232 159z"/>
<path style="fill:#020202; stroke:none;" d="M268 159L270 161L268 159z"/>
<path style="fill:#2b5e2d; stroke:none;" d="M37 160L38 161L37 160M215.333 160.667L215.667 161.333L215.333 160.667M244 160L245 161L244 160z"/>
<path style="fill:#020202; stroke:none;" d="M252 160L253 161L252 160z"/>
<path style="fill:#2b5e2d; stroke:none;" d="M387 160L385 164L389 172L393 174L393 175L390 177L397 178L391 179L394 181L395 186L393 184L392 184L390 187L397 191L388 189L392 193L391 196L397 201L392 202L392 203L395 206L398 205L398 212L395 212L395 213L403 217L398 224L402 223L409 225L409 224L409 223L402 219C406.376 221.211 408.643 220.912 413 219L413 214L412 214L408 218L407 211L404 211L407 216L401 209C404.803 209.634 406.372 211.141 407 208L408 208C408.315 210.595 408.46 210.523 411 210L412 213L413 213L407 205L407 208L404 204L406 204L408 200L408 199L402 202L405 202L397 198L400 200L403 196L405 198C406.019 192.832 404.984 188.271 399 188L398 183L394 183L394 182L400 184L400 181L404 181L401 178L399 170L397 171L399 168L395 167C394.189 162.87 390.93 161.072 387 160z"/>
<path style="fill:#4daf51; stroke:none;" d="M37 161L35 166L37 161z"/>
<path style="fill:#2b5e2d; stroke:none;" d="M210 161L210 163L212 163L210 161z"/>
<path style="fill:#020202; stroke:none;" d="M216 161L217 162L216 161z"/>
<path style="fill:#9e9f9e; stroke:none;" d="M215 162L215 164L217 162L215 162z"/>
<path style="fill:#2b5e2d; stroke:none;" d="M398 163L398 164L401 167L402 167L402 163L398 163z"/>
<path style="fill:#020202; stroke:none;" d="M158 163L159 164L158 163z"/>
<path style="fill:#2b5e2d; stroke:none;" d="M244 163L244 167L245 167L244 163z"/>
<path style="fill:#020202; stroke:none;" d="M253 163L254 164L253 163M38 164L39 167L40 167L38 164z"/>
<path style="fill:#2b5e2d; stroke:none;" d="M211 164L210 172L214 165L211 164z"/>
<path style="fill:#020202; stroke:none;" d="M278 164L280 166L278 164z"/>
<path style="fill:#4daf51; stroke:none;" d="M211 165L212 166L211 165M390 166L390 167L393 167L390 166z"/>
<path style="fill:#2b5e2d; stroke:none;" d="M397 165L398 166L397 165M35 166L36 167L35 166M234 166L235 167L234 166M240 166L241 167L240 166M387 166L388 167L387 166z"/>
<path style="fill:#9e9f9e; stroke:none;" d="M233 167L232 172L235 167L233 167z"/>
<path style="fill:#4daf51; stroke:none;" d="M34.6667 168.333L35.3333 168.667L34.6667 168.333z"/>
<path style="fill:#fefefe; stroke:none;" d="M234 168L235 169L234 168z"/>
<path style="fill:#2b5e2d; stroke:none;" d="M235 168L236 169L235 168M244 168L245 169L244 168z"/>
<path style="fill:#020202; stroke:none;" d="M396 168L397 169L396 168z"/>
<path style="fill:#2b5e2d; stroke:none;" d="M35 169L36 170L35 169z"/>
<path style="fill:#020202; stroke:none;" d="M389 169L390 170L389 169z"/>
<path style="fill:#4daf51; stroke:none;" d="M394 169L395 170L394 169M397 169L398 170L397 169z"/>
<path style="fill:#2b5e2d; stroke:none;" d="M400 169L401 170L400 169z"/>
<path style="fill:#4daf51; stroke:none;" d="M34 170L34 172L36 170L34 170z"/>
<path style="fill:#2b5e2d; stroke:none;" d="M211 173L216 172C213.989 169.953 212.84 171.107 211 173M234 170L235 171L234 170z"/>
<path style="fill:#020202; stroke:none;" d="M397 170L398 171L397 170z"/>
<path style="fill:#2b5e2d; stroke:none;" d="M35.6667 171.333L36.3333 171.667L35.6667 171.333M233 171L234 172L233 171z"/>
<path style="fill:#020202; stroke:none;" d="M392 171L394 176L397 173L392 171z"/>
<path style="fill:#2b5e2d; stroke:none;" d="M39 172L38 174L40 174L39 172z"/>
<path style="fill:#4daf51; stroke:none;" d="M397 172L398 173L397 172M34 173L35 174L34 173z"/>
<path style="fill:#2b5e2d; stroke:none;" d="M210 173L210 179L215 176L210 173z"/>
<path style="fill:#4daf51; stroke:none;" d="M398.333 173.667L398.667 174.333L398.333 173.667z"/>
<path style="fill:#2b5e2d; stroke:none;" d="M35 174L36 175L35 174z"/>
<path style="fill:#4daf51; stroke:none;" d="M211 174L212 175L211 174z"/>
<path style="fill:#2b5e2d; stroke:none;" d="M402 174L403 175L402 174M37 175L38 180L39 180L40 175L37 175z"/>
<path style="fill:#4daf51; stroke:none;" d="M214 175L215 176L214 175z"/>
<path style="fill:#2b5e2d; stroke:none;" d="M234 175L235 176L234 175z"/>
<path style="fill:#020202; stroke:none;" d="M397 175L396 176L399 178L397 175z"/>
<path style="fill:#2b5e2d; stroke:none;" d="M398.333 175.667L398.667 176.333L398.333 175.667z"/>
<path style="fill:#020202; stroke:none;" d="M399 175L401 177L399 175z"/>
<path style="fill:#4daf51; stroke:none;" d="M401 175L402 176L401 175M213 176L214 177L213 176z"/>
<path style="fill:#2b5e2d; stroke:none;" d="M216.333 176.667L216.667 177.333L216.333 176.667z"/>
<path style="fill:#020202; stroke:none;" d="M392 176L393 177L392 176z"/>
<path style="fill:#4daf51; stroke:none;" d="M399.333 176.667L399.667 177.333L399.333 176.667z"/>
<path style="fill:#9e9f9e; stroke:none;" d="M234 177L235 178L234 177z"/>
<path style="fill:#2b5e2d; stroke:none;" d="M244 177L246 179L246 177L244 177z"/>
<path style="fill:#4daf51; stroke:none;" d="M394 177L395 178L394 177M213 178L214 179L213 178z"/>
<path style="fill:#020202; stroke:none;" d="M392 178C394.115 179.927 395.172 180.369 397 178L392 178z"/>
<path style="fill:#4daf51; stroke:none;" d="M393 178L394 179L393 178z"/>
<path style="fill:#9e9f9e; stroke:none;" d="M216 179L217 180L216 179M233 179L234 183L235 183L233 179z"/>
<path style="fill:#2b5e2d; stroke:none;" d="M234 179L235 180L234 179z"/>
<path style="fill:#020202; stroke:none;" d="M398 179L399 180L398 179M400 179L401 180L400 179M158 180L159 181L158 180z"/>
<path style="fill:#2b5e2d; stroke:none;" d="M39 181L40 186L39 181M210 181L209 183L209 184L211 184L211 189L212 189L214 183L210 181M234 181L235 182L234 181M407 181L406 187C408.415 185.181 408.397 183.628 407 181z"/>
<path style="fill:#020202; stroke:none;" d="M162 182L163 183L162 182z"/>
<path style="fill:#2b5e2d; stroke:none;" d="M244 182L245 183L244 182z"/>
<path style="fill:#020202; stroke:none;" d="M394.667 182.333L395.333 182.667L394.667 182.333z"/>
<path style="fill:#4daf51; stroke:none;" d="M396 182L397 183L396 182z"/>
<path style="fill:#2b5e2d; stroke:none;" d="M402 182L402 183L405 183L402 182M215 183L216 188L217 188L215 183z"/>
<path style="fill:#4daf51; stroke:none;" d="M408 183L408 188L412 187L408 183z"/>
<path style="fill:#020202; stroke:none;" d="M165 184L166 185L165 184z"/>
<path style="fill:#9e9f9e; stroke:none;" d="M234.333 184.667L234.667 185.333L234.333 184.667z"/>
<path style="fill:#2b5e2d; stroke:none;" d="M213 185L214 186L213 185z"/>
<path style="fill:#9e9f9e; stroke:none;" d="M232 185L230 188C232.251 187.527 233.118 187.14 232 185z"/>
<path style="fill:#2b5e2d; stroke:none;" d="M399 185L400 186L399 185M38 186L39 187L38 186z"/>
<path style="fill:#4daf51; stroke:none;" d="M216 186L217 187L216 186z"/>
<path style="fill:#2b5e2d; stroke:none;" d="M233.333 186.667L233.667 187.333L233.333 186.667M246 186L244 189C246.251 188.527 247.118 188.14 246 186z"/>
<path style="fill:#020202; stroke:none;" d="M396 186L398 188L396 186z"/>
<path style="fill:#4daf51; stroke:none;" d="M400 186L401 187L400 186z"/>
<path style="fill:#2b5e2d; stroke:none;" d="M241 187L242 188L241 187z"/>
<path style="fill:#020202; stroke:none;" d="M268 187L269 188L268 187z"/>
<path style="fill:#2b5e2d; stroke:none;" d="M213 188L214 189L213 188M38 189L39 190L38 189M241.333 189.667L241.667 190.333L241.333 189.667M243 189L244 190L243 189z"/>
<path style="fill:#020202; stroke:none;" d="M291 189L292 190L291 189M396 189L397 190L396 189z"/>
<path style="fill:#2b5e2d; stroke:none;" d="M246 190L247 191L246 190z"/>
<path style="fill:#4daf51; stroke:none;" d="M398.667 190.333L399.333 190.667L398.667 190.333z"/>
<path style="fill:#020202; stroke:none;" d="M401 190L399 194L404 191L401 190z"/>
<path style="fill:#2b5e2d; stroke:none;" d="M244 191L245 192L244 191z"/>
<path style="fill:#020202; stroke:none;" d="M391 191L392 192L391 191z"/>
<path style="fill:#4daf51; stroke:none;" d="M403 191L404 192L403 191z"/>
<path style="fill:#2b5e2d; stroke:none;" d="M247 195L247 192C244.392 193.119 243.932 194.341 247 195z"/>
<path style="fill:#020202; stroke:none;" d="M71 193L72 194L71 193z"/>
<path style="fill:#2b5e2d; stroke:none;" d="M211 193L211 197L212 197L211 193z"/>
<path style="fill:#9e9f9e; stroke:none;" d="M217 193L218 194L217 193z"/>
<path style="fill:#020202; stroke:none;" d="M246 193L247 194L246 193M402 195L405 194L402 195z"/>
<path style="fill:#2b5e2d; stroke:none;" d="M37 194L38 195L37 194z"/>
<path style="fill:#9e9f9e; stroke:none;" d="M231 194L232 195L231 194z"/>
<path style="fill:#4daf51; stroke:none;" d="M396 194L395 195L395 196L396 197L397 197L398 196L398 195L396 194M401 194L401 196L403 196L401 194M403 194L404 195L403 194z"/>
<path style="fill:#2b5e2d; stroke:none;" d="M36 195L37 198L36 195M231 195L232 196L231 195M396 195L397 196L396 195M245 196L247 198L247 196L245 196M392 196L393 197L392 196z"/>
<path style="fill:#020202; stroke:none;" d="M397 196L398 197L397 196z"/>
<path style="fill:#4daf51; stroke:none;" d="M403 196L405 199L403 196z"/>
<path style="fill:#2b5e2d; stroke:none;" d="M391.667 198.333L392.333 198.667L391.667 198.333z"/>
<path style="fill:#4daf51; stroke:none;" d="M397 198L404 204L397 198z"/>
<path style="fill:#020202; stroke:none;" d="M399 198L400 199L399 198M402 198L401 201L402 198z"/>
<path style="fill:#2b5e2d; stroke:none;" d="M409 198L410 199L409 198M35.3333 199.667L35.6667 200.333L35.3333 199.667M213 199L212 203L213 199M231.333 199.667L231.667 200.333L231.333 199.667z"/>
<path style="fill:#020202; stroke:none;" d="M396 200L397 201L396 200z"/>
<path style="fill:#2b5e2d; stroke:none;" d="M408 200L409 201L408 200z"/>
<path style="fill:#020202; stroke:none;" d="M403 201L404 202L403 201z"/>
<path style="fill:#2b5e2d; stroke:none;" d="M37.3333 202.667L37.6667 203.333L37.3333 202.667z"/>
<path style="fill:#9e9f9e; stroke:none;" d="M232 202L233 203L232 202z"/>
<path style="fill:#020202; stroke:none;" d="M365 202L366 203L365 202M398 202L401 205L398 202M404 202L405 203L404 202z"/>
<path style="fill:#2b5e2d; stroke:none;" d="M214 203L215 204L214 203z"/>
<path style="fill:#020202; stroke:none;" d="M326 203L327 204L326 203z"/>
<path style="fill:#4daf51; stroke:none;" d="M396 203L397 204L396 203z"/>
<path style="fill:#2b5e2d; stroke:none;" d="M38 204L36 206L36 207L38 209L38 204M212 204L213 205L212 204M218 204L219 205L218 204M246 204L247 205L246 204z"/>
<path style="fill:#4daf51; stroke:none;" d="M404 204L407 208L404 204M399.333 205.667L399.667 206.333L399.333 205.667z"/>
<path style="fill:#2b5e2d; stroke:none;" d="M400 205L401 206L400 205z"/>
<path style="fill:#4daf51; stroke:none;" d="M401 205L402 206L401 205z"/>
<path style="fill:#9e9f9e; stroke:none;" d="M233 206L234 207L233 206z"/>
<path style="fill:#2b5e2d; stroke:none;" d="M246 206L247 207L246 206z"/>
<path style="fill:#020202; stroke:none;" d="M400 206L402 208L402 206L400 206M403 206L404 207L403 206M405 206L406 207L405 206z"/>
<path style="fill:#2b5e2d; stroke:none;" d="M211 207L213 212L211 207M233 207L235 209L235 207L233 207M392 208L396 211L396 208L392 208z"/>
<path style="fill:#4daf51; stroke:none;" d="M403 207L404 208L403 207z"/>
<path style="fill:#020202; stroke:none;" d="M409.333 207.667L409.667 208.333L409.333 207.667z"/>
<path style="fill:#4daf51; stroke:none;" d="M411 207L412 210L413 210L413 207L411 207M400 208L401 209L400 208z"/>
<path style="fill:#020202; stroke:none;" d="M407 208L408 209L407 208M411 208L412 209L411 208z"/>
<path style="fill:#2b5e2d; stroke:none;" d="M233.333 209.667L233.667 210.333L233.333 209.667z"/>
<path style="fill:#4daf51; stroke:none;" d="M401 209L407 216L404 212L406 209L401 209M407 209L408 210L407 209z"/>
<path style="fill:#9e9f9e; stroke:none;" d="M234 210L235 211L234 210z"/>
<path style="fill:#2b5e2d; stroke:none;" d="M245.333 210.667L245.667 211.333L245.333 210.667z"/>
<path style="fill:#020202; stroke:none;" d="M406 210L408 217C411.962 215.734 412.2 213.793 411 210L406 210z"/>
<path style="fill:#4daf51; stroke:none;" d="M413 210L412 217C415.013 215.026 414.952 212.914 413 210z"/>
<path style="fill:#020202; stroke:none;" d="M405 211L406 212L405 211z"/>
<path style="fill:#2b5e2d; stroke:none;" d="M217 212L218 213L217 212z"/>
<path style="fill:#9e9f9e; stroke:none;" d="M218 212L219 213L218 212M232 212L233 213L232 212z"/>
<path style="fill:#2b5e2d; stroke:none;" d="M246 212L246 215C248.006 213.873 248.006 213.127 246 212M211 213L211 218L215 220L211 213M398 214L400 218L398 214z"/>
<path style="fill:#4daf51; stroke:none;" d="M403 215L404 216L403 215z"/>
<path style="fill:#2b5e2d; stroke:none;" d="M40 216L40 219L41 219L40 216z"/>
<path style="fill:#9e9f9e; stroke:none;" d="M218 216L219 217L218 216z"/>
<path style="fill:#2b5e2d; stroke:none;" d="M394 216C393.937 219.703 395.424 220.527 399 220L394 216z"/>
<path style="fill:#020202; stroke:none;" d="M213 217L214 218L213 217z"/>
<path style="fill:#4daf51; stroke:none;" d="M405 217L404 219L405 217M408.667 217.333L409.333 217.667L408.667 217.333z"/>
<path style="fill:#020202; stroke:none;" d="M211 218L212 219L211 218z"/>
<path style="fill:#9e9f9e; stroke:none;" d="M233 218L234 219L233 218z"/>
<path style="fill:#4daf51; stroke:none;" d="M248 218L249 219L248 218z"/>
<path style="fill:#020202; stroke:none;" d="M411 218L412 219L411 218z"/>
<path style="fill:#2b5e2d; stroke:none;" d="M39 219L40 220L39 219M245 219L246 220L245 219M247 219L248 220L247 219z"/>
<path style="fill:#4daf51; stroke:none;" d="M402 219L407 224L402 219z"/>
<path style="fill:#020202; stroke:none;" d="M406 219L407 220L406 219z"/>
<path style="fill:#4daf51; stroke:none;" d="M412 219L413 220L412 219z"/>
<path style="fill:#2b5e2d; stroke:none;" d="M41 220L42 221L41 220M212 220L213 221L212 220z"/>
<path style="fill:#4daf51; stroke:none;" d="M401.333 220.667L401.667 221.333L401.333 220.667z"/>
<path style="fill:#020202; stroke:none;" d="M154 221L155 222L154 221z"/>
<path style="fill:#2b5e2d; stroke:none;" d="M244.333 221.667L244.667 222.333L244.333 221.667M39 222L39 224L41 224L39 222M211 222L211 226L212 226L213 222L211 222M397 222L398 223L397 222z"/>
<path style="fill:#020202; stroke:none;" d="M167 223L168 224L167 223z"/>
<path style="fill:#2b5e2d; stroke:none;" d="M218 223L219 224L218 223M245.333 223.667L245.667 224.333L245.333 223.667z"/>
<path style="fill:#4daf51; stroke:none;" d="M407 224L408 225L407 224z"/>
<path style="fill:#020202; stroke:none;" d="M169 225L170 226L169 225z"/>
<path style="fill:#2b5e2d; stroke:none;" d="M393 226L398 228L398 227L396 225L393 226M399 225L401 227L399 225M39 226L40 227L39 226M212.333 226.667L212.667 227.333L212.333 226.667M246 226L247 227L246 226z"/>
<path style="fill:#020202; stroke:none;" d="M353 226L354 227L353 226M395 226L396 227L395 226z"/>
<path style="fill:#2b5e2d; stroke:none;" d="M401 227L401 228L405 228L405 230L408 229L406 226L401 227z"/>
<path style="fill:#9e9f9e; stroke:none;" d="M218 227L219 228L218 227z"/>
<path style="fill:#2b5e2d; stroke:none;" d="M40 228L41 229L40 228M398 228L395 230L395 231L399 237L399 238L403 239L401 243L405 245L405 238L409 236L408 233L410 234L410 233L409 230C403.855 232.877 401.745 231.862 398 228z"/>
<path style="fill:#020202; stroke:none;" d="M404 228L405 229L404 228M357 229L358 230L357 229z"/>
<path style="fill:#2b5e2d; stroke:none;" d="M38.6667 230.333L39.3333 230.667L38.6667 230.333z"/>
<path style="fill:#020202; stroke:none;" d="M45 230L46 231L45 230z"/>
<path style="fill:#2b5e2d; stroke:none;" d="M212 230L213 231L212 230z"/>
<path style="fill:#020202; stroke:none;" d="M252 230L253 231L252 230M282 230L283 231L282 230z"/>
<path style="fill:#2b5e2d; stroke:none;" d="M404 230L405 231L404 230M211 231L212 232L211 231z"/>
<path style="fill:#020202; stroke:none;" d="M255 231L256 232L255 231z"/>
<path style="fill:#2b5e2d; stroke:none;" d="M401 231L402 232L401 231M39 232L41 234L41 232L39 232M246 233L247 234L246 233M393 234L394 243L398 243L398 237L396 237L396 236L398 236L393 234z"/>
<path style="fill:#4daf51; stroke:none;" d="M403 233L404 237L407 233L403 233z"/>
<path style="fill:#2b5e2d; stroke:none;" d="M218 234L219 235L218 234z"/>
<path style="fill:#4daf51; stroke:none;" d="M395 234L396 235L395 234z"/>
<path style="fill:#2b5e2d; stroke:none;" d="M405 234L406 235L405 234M40 235L41 236L40 235M246 235L247 236L246 235M39 236L40 237L39 236M212 236L213 237L212 236M213.333 237.667L213.667 238.333L213.333 237.667M246 237L247 238L246 237z"/>
<path style="fill:#020202; stroke:none;" d="M402.667 237.333L403.333 237.667L402.667 237.333z"/>
<path style="fill:#2b5e2d; stroke:none;" d="M38 238L38 240L40 240L38 238M212 239L213 240L212 239M214 239L211 243L216 240L214 239M235 239L236 240L235 239M40 240L41 241L40 240z"/>
<path style="fill:#4daf51; stroke:none;" d="M216 240L217 241L216 240z"/>
<path style="fill:#9e9f9e; stroke:none;" d="M236 240L237 241L236 240z"/>
<path style="fill:#2b5e2d; stroke:none;" d="M399 242L402 240L399 242z"/>
<path style="fill:#020202; stroke:none;" d="M207 241L208 242L207 241z"/>
<path style="fill:#2b5e2d; stroke:none;" d="M245 241L246 242L245 241M39 242L40 243L39 242M245 243L246 246L247 246L247 243L245 243M393 243L401 252L393 248C393.135 251.247 393.784 252.393 397 253L400 257L400 260L396 258L397 264L394 262L393 265L397 269L395 268L395 269L398 272C398 268.605 400.017 271.481 401 273L399 272L399 273L403 275L398 277C397.581 274.886 396.643 272.576 395 275L394 275L395 272L393 273L395 270L392 268L391 268L389 270L398 279L397 284L396 284L397 280L392 276L391 276L390 276L392 280L389 281L390 287L393 287L393 288L387 289L391 294L390 296L392 295L392 299L386 297L385 302L389 306L389 310L381 305L380 308L380 309L382 311L377 312L379 317L379 312L383 316L380 317L384 323L384 328L382 326L381 326L384 329L386 332L384 329L384 328L390 327L391 325L391 319L384 318L386 315L383 315L385 309L386 309L385 313L392 312L393 306C396.149 307.095 397.261 306.9 399 304L397 305L397 304L401 302L401 297L399 299L398 299L395 290L397 293L398 293L401 291L400 283L407 279L407 278L404 277L404 271L403 271L403 273L402 273C403.452 269.431 405.649 269.325 407 273L408 273L408 270L409 270L410 272L410 268L405 266L407 267L406 265L410 266L409 263L405 263C406.891 260.778 407.145 259.502 404 259L404 258L409 258L409 257L408 251L406 255L405 255C406.063 249.253 403.564 247.307 398 247L400 243L397 246L393 243M38 244L39 245L38 244M213 244L214 245L213 244M39 245L40 246L39 245M212 245L212 254L215 253L216 249L212 245z"/>
<path style="fill:#020202; stroke:none;" d="M251 245L252 246L251 245M396 245L397 246L396 245z"/>
<path style="fill:#2b5e2d; stroke:none;" d="M400 245L401 246L400 245M405.333 245.667L405.667 246.333L405.333 245.667z"/>
<path style="fill:#9e9f9e; stroke:none;" d="M236 246L237 247L236 246z"/>
<path style="fill:#2b5e2d; stroke:none;" d="M407 246L408 247L407 246M39 247L40 248L39 247M406 247L407 248L406 247M408 247L409 248L408 247z"/>
<path style="fill:#020202; stroke:none;" d="M399 248L400 249L399 248M401 248L401 250L403 248L401 248z"/>
<path style="fill:#2b5e2d; stroke:none;" d="M39 249L40 250L39 249M245 249L246 250L245 249M408 249L409 250L408 249M246.333 250.667L246.667 251.333L246.333 250.667M218 251L219 252L218 251z"/>
<path style="fill:#020202; stroke:none;" d="M403 251L404 252L403 251z"/>
<path style="fill:#9e9f9e; stroke:none;" d="M218 252L219 253L218 252z"/>
<path style="fill:#020202; stroke:none;" d="M395 252L396 253L395 252z"/>
<path style="fill:#4daf51; stroke:none;" d="M213 253L214 254L213 253z"/>
<path style="fill:#2b5e2d; stroke:none;" d="M245 253L247 255L247 253L245 253z"/>
<path style="fill:#020202; stroke:none;" d="M396 253L397 254L396 253M399 253L400 254L399 253z"/>
<path style="fill:#2b5e2d; stroke:none;" d="M243.333 254.667L243.667 255.333L243.333 254.667z"/>
<path style="fill:#4daf51; stroke:none;" d="M400 254L401 255L400 254z"/>
<path style="fill:#020202; stroke:none;" d="M403 254L404 255L403 254M405 254L406 255L405 254z"/>
<path style="fill:#2b5e2d; stroke:none;" d="M213 255L214 256L213 255z"/>
<path style="fill:#9e9f9e; stroke:none;" d="M231 255L232 256L231 255z"/>
<path style="fill:#2b5e2d; stroke:none;" d="M245 255L246 260L247 260L245 255z"/>
<path style="fill:#020202; stroke:none;" d="M399 255L400 256L399 255M401 255L401 257L403 255L401 255M404.333 255.667L404.667 256.333L404.333 255.667z"/>
<path style="fill:#2b5e2d; stroke:none;" d="M212 256L212 260L213 260L212 256M395 257L396 258L395 257z"/>
<path style="fill:#4daf51; stroke:none;" d="M401 257L402 258L401 257z"/>
<path style="fill:#2b5e2d; stroke:none;" d="M39.3333 260.667L39.6667 261.333L39.3333 260.667M243 260L243 266C245.59 263.936 245.104 262.315 243 260z"/>
<path style="fill:#020202; stroke:none;" d="M402 260L403 261L402 260z"/>
<path style="fill:#4daf51; stroke:none;" d="M404 260L405 261L404 260M243 261L244 262L243 261M401 261L403 263L403 261L401 261z"/>
<path style="fill:#2b5e2d; stroke:none;" d="M211 262L212 263L211 262z"/>
<path style="fill:#020202; stroke:none;" d="M400 262L399 263L399 264L400 265L401 265L402 264L402 263L400 262z"/>
<path style="fill:#2b5e2d; stroke:none;" d="M401 262L402 263L401 262M38 263L39 264L38 263M213 263L212 272L213 272L216 267L215 266L214 268L213 268L213 263z"/>
<path style="fill:#4daf51; stroke:none;" d="M214 263L215 264L214 263M403.333 263.667L403.667 264.333L403.333 263.667M406 263L407 264L406 263z"/>
<path style="fill:#2b5e2d; stroke:none;" d="M39 264L40 265L39 264z"/>
<path style="fill:#9e9f9e; stroke:none;" d="M231 264L232 265L231 264z"/>
<path style="fill:#020202; stroke:none;" d="M395 264L396 265L395 264z"/>
<path style="fill:#4daf51; stroke:none;" d="M398 264L399 265L398 264z"/>
<path style="fill:#020202; stroke:none;" d="M405 264L406 265L405 264z"/>
<path style="fill:#2b5e2d; stroke:none;" d="M410 264L411 265L410 264M38 265L39 266L38 265z"/>
<path style="fill:#9e9f9e; stroke:none;" d="M218 265L219 266L218 265M232 265L233 266L232 265z"/>
<path style="fill:#4daf51; stroke:none;" d="M397 265L398 266L397 265z"/>
<path style="fill:#2b5e2d; stroke:none;" d="M39 266L40 267L39 266z"/>
<path style="fill:#020202; stroke:none;" d="M394 266L397 269L394 266z"/>
<path style="fill:#4daf51; stroke:none;" d="M399 266L402 270L399 266z"/>
<path style="fill:#020202; stroke:none;" d="M401 266L402 268L403 268L404 266L401 266z"/>
<path style="fill:#4daf51; stroke:none;" d="M405 266L406 267L405 266M213 267L214 268L213 267z"/>
<path style="fill:#2b5e2d; stroke:none;" d="M408 267L409 268L408 267z"/>
<path style="fill:#020202; stroke:none;" d="M247 268L248 269L247 268z"/>
<path style="fill:#4daf51; stroke:none;" d="M403 268L404 269L403 268z"/>
<path style="fill:#2b5e2d; stroke:none;" d="M411 268L412 269L411 268M245 269L247 271L247 269L245 269z"/>
<path style="fill:#020202; stroke:none;" d="M409 269L410 270L409 269z"/>
<path style="fill:#2b5e2d; stroke:none;" d="M217 270L218 271L217 270z"/>
<path style="fill:#020202; stroke:none;" d="M392 270L393 271L392 270M397 270L397 271L401 273L397 270z"/>
<path style="fill:#4daf51; stroke:none;" d="M411 270L412 271L411 270z"/>
<path style="fill:#9e9f9e; stroke:none;" d="M217 271L218 272L217 271z"/>
<path style="fill:#2b5e2d; stroke:none;" d="M245 271C243.446 273.21 243.726 273.586 246 275L245 271M405 271L406 272L405 271M211 272L211 276L212 276L211 272z"/>
<path style="fill:#020202; stroke:none;" d="M393 272L394 273L393 272z"/>
<path style="fill:#4daf51; stroke:none;" d="M402 272L403 273L402 272z"/>
<path style="fill:#2b5e2d; stroke:none;" d="M216.333 274.667L216.667 275.333L216.333 274.667z"/>
<path style="fill:#020202; stroke:none;" d="M394 274L395 275L394 274M400 274L401 276L402 276L403 274L400 274z"/>
<path style="fill:#2b5e2d; stroke:none;" d="M406 274L406 277L408 274L406 274M410 274L411 275L410 274M41 275L41 278L42 278L41 275z"/>
<path style="fill:#9e9f9e; stroke:none;" d="M217 275L218 276L217 275z"/>
<path style="fill:#2b5e2d; stroke:none;" d="M246 275L245 278L246 275z"/>
<path style="fill:#4daf51; stroke:none;" d="M405 275L406 276L405 275z"/>
<path style="fill:#020202; stroke:none;" d="M395.667 276.333L396.333 276.667L395.667 276.333M402 276L403 277L402 276z"/>
<path style="fill:#2b5e2d; stroke:none;" d="M217 277L218 278L217 277M387 277L389 279L389 277L387 277M409 277L409 279L411 279L411 277L409 277M212 278L212 285L213 285L212 278z"/>
<path style="fill:#020202; stroke:none;" d="M389 278L392 280L389 278M398 278L402 280L398 278z"/>
<path style="fill:#4daf51; stroke:none;" d="M403 278L404 279L403 278z"/>
<path style="fill:#2b5e2d; stroke:none;" d="M40 279L41 291L42 291L40 279M245.333 279.667L245.667 280.333L245.333 279.667z"/>
<path style="fill:#9e9f9e; stroke:none;" d="M217 280L218 281L217 280z"/>
<path style="fill:#2b5e2d; stroke:none;" d="M233 281L234 282L233 281z"/>
<path style="fill:#020202; stroke:none;" d="M391 281L391 282L395 283L391 281z"/>
<path style="fill:#2b5e2d; stroke:none;" d="M38 282L39 283L38 282z"/>
<path style="fill:#9e9f9e; stroke:none;" d="M234 282L235 283L234 282z"/>
<path style="fill:#2b5e2d; stroke:none;" d="M403 282L404 283L403 282z"/>
<path style="fill:#9e9f9e; stroke:none;" d="M236 283L237 284L236 283z"/>
<path style="fill:#2b5e2d; stroke:none;" d="M246 283L247 284L246 283M244 284L244 286L246 284L244 284z"/>
<path style="fill:#020202; stroke:none;" d="M395 284L396 285L395 284z"/>
<path style="fill:#2b5e2d; stroke:none;" d="M217.333 285.667L217.667 286.333L217.333 285.667z"/>
<path style="fill:#020202; stroke:none;" d="M392.667 285.333L393.333 285.667L392.667 285.333z"/>
<path style="fill:#2b5e2d; stroke:none;" d="M212 286L213 287L212 286M234 286L235 287L234 286M245 286L246 287L245 286z"/>
<path style="fill:#020202; stroke:none;" d="M391 286L390 288L392 288L391 286z"/>
<path style="fill:#4daf51; stroke:none;" d="M395 286L399 290L395 286M398 286L400 288L400 286L398 286z"/>
<path style="fill:#2b5e2d; stroke:none;" d="M218 287L219 288L218 287z"/>
<path style="fill:#9e9f9e; stroke:none;" d="M234.333 287.667L234.667 288.333L234.333 287.667z"/>
<path style="fill:#2b5e2d; stroke:none;" d="M244.333 287.667L244.667 288.333L244.333 287.667z"/>
<path style="fill:#4daf51; stroke:none;" d="M392 287L393 288L392 287z"/>
<path style="fill:#020202; stroke:none;" d="M394 287L393 292L394 292L396 288L394 287z"/>
<path style="fill:#9e9f9e; stroke:none;" d="M218 288L219 289L218 288z"/>
<path style="fill:#2b5e2d; stroke:none;" d="M211 289L213 291L213 289L211 289z"/>
<path style="fill:#020202; stroke:none;" d="M389 289L390 290L389 289z"/>
<path style="fill:#4daf51; stroke:none;" d="M391 289L392 290L391 289M400 289L401 290L400 289z"/>
<path style="fill:#2b5e2d; stroke:none;" d="M215 290L214 294L215 294L215 290M218 290L219 291L218 290z"/>
<path style="fill:#020202; stroke:none;" d="M390 290L391 291L390 290z"/>
<path style="fill:#4daf51; stroke:none;" d="M392 290L393 291L392 290z"/>
<path style="fill:#020202; stroke:none;" d="M395 290L396 291L395 290z"/>
<path style="fill:#4daf51; stroke:none;" d="M396 290L397 291L396 290z"/>
<path style="fill:#2b5e2d; stroke:none;" d="M42 291L41 298L42 298L42 291z"/>
<path style="fill:#9e9f9e; stroke:none;" d="M218 291L219 292L218 291z"/>
<path style="fill:#2b5e2d; stroke:none;" d="M246 291L247 292L246 291M402 291L401 293L402 291M212 292L212 294L214 292L212 292z"/>
<path style="fill:#4daf51; stroke:none;" d="M216 292L217 293L216 292z"/>
<path style="fill:#2b5e2d; stroke:none;" d="M245 292L246 293L245 292z"/>
<path style="fill:#020202; stroke:none;" d="M391.333 292.667L391.667 293.333L391.333 292.667z"/>
<path style="fill:#4daf51; stroke:none;" d="M393 292L394 293L393 292z"/>
<path style="fill:#020202; stroke:none;" d="M394 293L395 294L394 293z"/>
<path style="fill:#9e9f9e; stroke:none;" d="M233 294L234 295L233 294z"/>
<path style="fill:#4daf51; stroke:none;" d="M394 294L395 295L394 294z"/>
<path style="fill:#2b5e2d; stroke:none;" d="M213 295C211.785 297.723 210.665 299.267 214 300L214 299L212 299L212 298L217 297L217 296L213 295z"/>
<path style="fill:#020202; stroke:none;" d="M391 295L392 296L391 295z"/>
<path style="fill:#4daf51; stroke:none;" d="M395 295L396 296L395 295z"/>
<path style="fill:#2b5e2d; stroke:none;" d="M246 296L245 300L246 300L246 296z"/>
<path style="fill:#020202; stroke:none;" d="M395 296L396 297L395 296z"/>
<path style="fill:#2b5e2d; stroke:none;" d="M43.3333 297.667L43.6667 298.333L43.3333 297.667M218 297L219 298L218 297z"/>
<path style="fill:#020202; stroke:none;" d="M392 297L398 302L398 301L396 298L392 297z"/>
<path style="fill:#4daf51; stroke:none;" d="M212 298L213 299L212 298z"/>
<path style="fill:#2b5e2d; stroke:none;" d="M243.333 298.667L243.667 299.333L243.333 298.667z"/>
<path style="fill:#4daf51; stroke:none;" d="M398 298L399 299L398 298z"/>
<path style="fill:#2b5e2d; stroke:none;" d="M42 300L43 301L42 300M246.333 300.667L246.667 301.333L246.333 300.667z"/>
<path style="fill:#020202; stroke:none;" d="M389 300L389 306L394 303L390 303L389 300z"/>
<path style="fill:#4daf51; stroke:none;" d="M396 300L397 301L396 300z"/>
<path style="fill:#2b5e2d; stroke:none;" d="M211 301L211 304L212 304L213 301L211 301z"/>
<path style="fill:#9e9f9e; stroke:none;" d="M218.333 301.667L218.667 302.333L218.333 301.667z"/>
<path style="fill:#4daf51; stroke:none;" d="M392 301L393 302L392 301z"/>
<path style="fill:#2b5e2d; stroke:none;" d="M43 302L45 304L43 302z"/>
<path style="fill:#020202; stroke:none;" d="M44 302L45 303L44 302M395 303L396 304L395 303z"/>
<path style="fill:#2b5e2d; stroke:none;" d="M212 304L211 307L212 304M214 304L215 305L214 304M233 305L234 306L233 305z"/>
<path style="fill:#020202; stroke:none;" d="M395.333 305.667L395.667 306.333L395.333 305.667z"/>
<path style="fill:#4daf51; stroke:none;" d="M212 306L213 307L212 306z"/>
<path style="fill:#2b5e2d; stroke:none;" d="M244 306L245 307L244 306M246 306L247 307L246 306M380 306L381 307L380 306z"/>
<path style="fill:#020202; stroke:none;" d="M388 306L389 307L388 306M391 307L392 308L391 307z"/>
<path style="fill:#2b5e2d; stroke:none;" d="M211.333 308.667L211.667 309.333L211.333 308.667M218 308L219 309L218 308M243 308L244 309L243 308M245 308L243 312L247 309L245 308z"/>
<path style="fill:#020202; stroke:none;" d="M384 308L385 309L384 308z"/>
<path style="fill:#2b5e2d; stroke:none;" d="M44 309L46 312L46 309L44 309z"/>
<path style="fill:#9e9f9e; stroke:none;" d="M233 309L234 310L233 309z"/>
<path style="fill:#020202; stroke:none;" d="M385 309L384 313L385 313L385 309z"/>
<path style="fill:#2b5e2d; stroke:none;" d="M212 310L213 311L212 310M217 310L218 311L217 310z"/>
<path style="fill:#020202; stroke:none;" d="M372 310L373 311L372 310z"/>
<path style="fill:#2b5e2d; stroke:none;" d="M393 310L394 311L393 310M211 311L210 316L216 316L215 313L211 311M218 311L219 312L218 311M234 311L235 312L234 311M246 311L247 314L246 311z"/>
<path style="fill:#020202; stroke:none;" d="M267 311L268 312L267 311z"/>
<path style="fill:#9e9f9e; stroke:none;" d="M218 312L219 313L218 312z"/>
<path style="fill:#020202; stroke:none;" d="M379 312L379 317L383 316L379 312z"/>
<path style="fill:#4daf51; stroke:none;" d="M382 312L383 313L382 312z"/>
<path style="fill:#2b5e2d; stroke:none;" d="M388 312L391 318L399 318L396 312L388 312M46 313L47 314L46 313z"/>
<path style="fill:#9e9f9e; stroke:none;" d="M234 313L235 314L234 313z"/>
<path style="fill:#4daf51; stroke:none;" d="M383 313L383 315L385 313L383 313M388 313L389 314L388 313z"/>
<path style="fill:#9e9f9e; stroke:none;" d="M233 314L234 315L233 314z"/>
<path style="fill:#2b5e2d; stroke:none;" d="M247.333 314.667L247.667 315.333L247.333 314.667z"/>
<path style="fill:#020202; stroke:none;" d="M391 314L392 315L391 314M393 314L394 315L393 314z"/>
<path style="fill:#9e9f9e; stroke:none;" d="M232 315L234 317L232 315z"/>
<path style="fill:#020202; stroke:none;" d="M395 315L396 316L395 315z"/>
<path style="fill:#9e9f9e; stroke:none;" d="M217 316L218 317L217 316z"/>
<path style="fill:#2b5e2d; stroke:none;" d="M232 316L233 317L232 316M245 316L245 318L247 316L245 316M210 320L211 320L213 318C210.86 316.882 210.473 317.749 210 320M374.667 317.333L375.333 317.667L374.667 317.333z"/>
<path style="fill:#4daf51; stroke:none;" d="M384 317L384 318L387 318L384 317z"/>
<path style="fill:#9e9f9e; stroke:none;" d="M217 318L218 319L217 318z"/>
<path style="fill:#020202; stroke:none;" d="M375.667 318.333L376.333 318.667L375.667 318.333z"/>
<path style="fill:#2b5e2d; stroke:none;" d="M377 318L372 322L373 324L377 326L380 333L375 327L371 328L371 330L376 331L376 332L372 332L373 336L377 334L379 336L380 336L381 334L382 334L384 337L378 337L375 340L375 339L377 337L371 336L373 338L373 343L370 346L367 345L370 351L367 352L366 359L376 359L377 354L374 357L373 354L369 355L377 352L376 349L381 350L381 344L386 344L386 343L382 342L382 340L386 339L385 341L386 341L390 332L386 333L388 337C383.111 336.185 376.195 323.549 382 325L377 318z"/>
<path style="fill:#020202; stroke:none;" d="M382 318L382 321L383 321L382 318z"/>
<path style="fill:#4daf51; stroke:none;" d="M389 318L390 319L389 318z"/>
<path style="fill:#2b5e2d; stroke:none;" d="M47 319L48 320L47 319M243 319L244 320L243 319M246 319L247 320L246 319z"/>
<path style="fill:#020202; stroke:none;" d="M386.333 319.667L386.667 320.333L386.333 319.667z"/>
<path style="fill:#2b5e2d; stroke:none;" d="M244 320L246 324L247 324L244 320z"/>
<path style="fill:#020202; stroke:none;" d="M374 320L374 321L377 322L377 321L377 320L374 320z"/>
<path style="fill:#4daf51; stroke:none;" d="M388 320L390 322L388 320M390 320L391 321L390 320z"/>
<path style="fill:#2b5e2d; stroke:none;" d="M48 321L49 322L48 321z"/>
<path style="fill:#020202; stroke:none;" d="M379 321L380 322L379 321M384 321L385 322L384 321z"/>
<path style="fill:#2b5e2d; stroke:none;" d="M210 322L211 323L210 322z"/>
<path style="fill:#020202; stroke:none;" d="M387 322L387 324L389 324L389 322L387 322z"/>
<path style="fill:#2b5e2d; stroke:none;" d="M209.333 323.667L209.667 324.333L209.333 323.667M229 323L230 325L231 325L232 323L229 323z"/>
<path style="fill:#9e9f9e; stroke:none;" d="M232 323L233 324L232 323z"/>
<path style="fill:#4daf51; stroke:none;" d="M375 323L376 324L375 323z"/>
<path style="fill:#020202; stroke:none;" d="M383 323L384 324L383 323M385 323L386 324L385 323z"/>
<path style="fill:#9e9f9e; stroke:none;" d="M216 324L217 325L216 324M231 324L232 325L231 324z"/>
<path style="fill:#2b5e2d; stroke:none;" d="M233 324L234 325L233 324M245.333 324.667L245.667 325.333L245.333 324.667z"/>
<path style="fill:#4daf51; stroke:none;" d="M377 324L378 325L377 324z"/>
<path style="fill:#020202; stroke:none;" d="M380 324L380 327L381 327L380 324z"/>
<path style="fill:#2b5e2d; stroke:none;" d="M47 326L51 330L50 325L47 326M210 325L210 329L211 329L210 325z"/>
<path style="fill:#9e9f9e; stroke:none;" d="M226 325L227 326L226 325z"/>
<path style="fill:#2b5e2d; stroke:none;" d="M227.333 325.667L227.667 326.333L227.333 325.667z"/>
<path style="fill:#4daf51; stroke:none;" d="M380 325L381 326L380 325M387 325L388 326L387 325z"/>
<path style="fill:#2b5e2d; stroke:none;" d="M391 325L390 330L393 330L394 329L391 325z"/>
<path style="fill:#020202; stroke:none;" d="M49 326L50 327L49 326z"/>
<path style="fill:#2b5e2d; stroke:none;" d="M246 326L245 330L246 326z"/>
<path style="fill:#4daf51; stroke:none;" d="M379 326L380 327L379 326z"/>
<path style="fill:#020202; stroke:none;" d="M382 326L382 328L384 328L382 326z"/>
<path style="fill:#2b5e2d; stroke:none;" d="M208 327L209 328L208 327z"/>
<path style="fill:#020202; stroke:none;" d="M378.333 327.667L378.667 328.333L378.333 327.667z"/>
<path style="fill:#4daf51; stroke:none;" d="M380 327C381.171 331.551 383.363 335.554 388 337L387 332L384 329L380 327z"/>
<path style="fill:#020202; stroke:none;" d="M384.667 328.333L385.333 328.667L384.667 328.333z"/>
<path style="fill:#4daf51; stroke:none;" d="M386.667 328.333L387.333 328.667L386.667 328.333M390 328L391 329L390 328z"/>
<path style="fill:#2b5e2d; stroke:none;" d="M387 329L388 330L387 329z"/>
<path style="fill:#4daf51; stroke:none;" d="M389 329L390 330L389 329z"/>
<path style="fill:#2b5e2d; stroke:none;" d="M209 330L208 334L209 334L209 330z"/>
<path style="fill:#9e9f9e; stroke:none;" d="M229 330L230 331L229 330z"/>
<path style="fill:#020202; stroke:none;" d="M376 330L380 333L380 332L376 330z"/>
<path style="fill:#9e9f9e; stroke:none;" d="M231 331L232 332L231 331z"/>
<path style="fill:#2b5e2d; stroke:none;" d="M245.333 331.667L245.667 332.333L245.333 331.667z"/>
<path style="fill:#9e9f9e; stroke:none;" d="M232 332L232 334L234 334L232 332z"/>
<path style="fill:#4daf51; stroke:none;" d="M377 332L378 333L377 332M375 333L376 334L375 333M378 333L379 334L378 333M380 333L381 334L380 333z"/>
<path style="fill:#2b5e2d; stroke:none;" d="M205 337L207 338L208 338L208 334L205 337M244.333 334.667L244.667 335.333L244.333 334.667M372 334L373 335L372 334z"/>
<path style="fill:#020202; stroke:none;" d="M377 334L372 337L377 337L375 339L375 340L378 337L383 338L382 334L380 336L379 336L377 334z"/>
<path style="fill:#2b5e2d; stroke:none;" d="M50 335L51 336L50 335z"/>
<path style="fill:#020202; stroke:none;" d="M51 335L52 336L51 335z"/>
<path style="fill:#9e9f9e; stroke:none;" d="M232 335L233 336L232 335z"/>
<path style="fill:#020202; stroke:none;" d="M206 336L207 337L206 336z"/>
<path style="fill:#4daf51; stroke:none;" d="M383 336L384 337L383 336z"/>
<path style="fill:#2b5e2d; stroke:none;" d="M231 337L232 338L231 337M205 338L204 341L205 338z"/>
<path style="fill:#4daf51; stroke:none;" d="M380 338L379 340L380 338z"/>
<path style="fill:#2b5e2d; stroke:none;" d="M51 339L51 341L53 341L51 339z"/>
<path style="fill:#020202; stroke:none;" d="M373.333 339.667L373.667 340.333L373.333 339.667z"/>
<path style="fill:#4daf51; stroke:none;" d="M382 340L382 342L386 343L386 339L382 340z"/>
<path style="fill:#9e9f9e; stroke:none;" d="M228 340L229 341L228 340z"/>
<path style="fill:#2b5e2d; stroke:none;" d="M50 341L51 342L50 341M203 341L202 343L204 343L203 341M228 341L230 343L230 341L228 341M243 341L244 342L243 341z"/>
<path style="fill:#4daf51; stroke:none;" d="M377 341L378 342L377 341z"/>
<path style="fill:#020202; stroke:none;" d="M380 341L381 342L380 341z"/>
<path style="fill:#2b5e2d; stroke:none;" d="M52 342L53 343L52 342z"/>
<path style="fill:#9e9f9e; stroke:none;" d="M228.333 342.667L228.667 343.333L228.333 342.667z"/>
<path style="fill:#020202; stroke:none;" d="M375 342L376 345L378 343L381 344L375 342z"/>
<path style="fill:#2b5e2d; stroke:none;" d="M52 344L54 350L55 350L52 344M202 344L200 346L201 350L202 350L202 346L204 349L202 344M229 344L230 345L229 344z"/>
<path style="fill:#4daf51; stroke:none;" d="M372 344L371 345L374 347L372 344M381 344L382 345L381 344M52 345L53 346L52 345z"/>
<path style="fill:#2b5e2d; stroke:none;" d="M372 345L373 346L372 345z"/>
<path style="fill:#4daf51; stroke:none;" d="M375 345L376 346L375 345M202 346L201 348L203 348L202 346z"/>
<path style="fill:#020202; stroke:none;" d="M370 346L371 347L370 346z"/>
<path style="fill:#2b5e2d; stroke:none;" d="M383.667 346.333L384.333 346.667L383.667 346.333M229 347L230 348L229 347M241 347L241 350C243.006 348.873 243.006 348.127 241 347z"/>
<path style="fill:#020202; stroke:none;" d="M373 347L374 348L373 347M375 347L376 348L375 347z"/>
<path style="fill:#4daf51; stroke:none;" d="M378.667 347.333L379.333 347.667L378.667 347.333z"/>
<path style="fill:#2b5e2d; stroke:none;" d="M198 348L199 349L198 348z"/>
<path style="fill:#4daf51; stroke:none;" d="M372 348L372 352L373 352L375 349L372 348M380 348L381 349L380 348z"/>
<path style="fill:#2b5e2d; stroke:none;" d="M367 349L369 351L367 349z"/>
<path style="fill:#020202; stroke:none;" d="M371.333 349.667L371.667 350.333L371.333 349.667z"/>
<path style="fill:#2b5e2d; stroke:none;" d="M372 349L373 350L372 349z"/>
<path style="fill:#4daf51; stroke:none;" d="M376 349L377 350L376 349z"/>
<path style="fill:#9e9f9e; stroke:none;" d="M229 350L230 351L229 350z"/>
<path style="fill:#2b5e2d; stroke:none;" d="M193 351L194 352L193 351M195 351L196 352L195 351z"/>
<path style="fill:#9e9f9e; stroke:none;" d="M227 351L228 354L229 354L227 351z"/>
<path style="fill:#2b5e2d; stroke:none;" d="M228 351L229 352L228 351z"/>
<path style="fill:#020202; stroke:none;" d="M370 351L371 352L370 351M375 351L376 352L375 351z"/>
<path style="fill:#2b5e2d; stroke:none;" d="M191 352L192 353L191 352z"/>
<path style="fill:#020202; stroke:none;" d="M371 352L369 355C371.251 354.527 372.118 354.14 371 352z"/>
<path style="fill:#4daf51; stroke:none;" d="M373 352L372 353L374 357L376 353L373 352z"/>
<path style="fill:#2b5e2d; stroke:none;" d="M57 353L58 354L57 353M189 353L190 354L189 353M242 353L243 354L242 353z"/>
<path style="fill:#4daf51; stroke:none;" d="M369 353L370 354L369 353z"/>
<path style="fill:#2b5e2d; stroke:none;" d="M58 354L58 356L60 356L58 354M186 356L189 354L186 356z"/>
<path style="fill:#9e9f9e; stroke:none;" d="M198 354L198 356L200 354L198 354M227 354L228 355L227 354z"/>
<path style="fill:#2b5e2d; stroke:none;" d="M229 354L230 355L229 354M228 355L229 356L228 355M60 356L61 360L62 360L60 356z"/>
<path style="fill:#9e9f9e; stroke:none;" d="M197 356L198 357L197 356z"/>
<path style="fill:#4daf51; stroke:none;" d="M369 356L370 357L369 356z"/>
<path style="fill:#2b5e2d; stroke:none;" d="M179 361C181.95 360.017 182.622 359.513 182 362L185 357L179 361z"/>
<path style="fill:#4daf51; stroke:none;" d="M182 358L183 359L182 358z"/>
<path style="fill:#2b5e2d; stroke:none;" d="M239 358L238 362L239 358z"/>
<path style="fill:#020202; stroke:none;" d="M247 358L248 359L247 358M372 358L373 359L372 358z"/>
<path style="fill:#2b5e2d; stroke:none;" d="M60 360L61 361L60 360z"/>
<path style="fill:#020202; stroke:none;" d="M179 367L175 372L178 372L179 383L177 386L189 387L188 384L186 386L181 377L183 377C181.487 370.943 183.254 368.27 186 363L183 360C179.094 361.212 178.798 363.093 179 367z"/>
<path style="fill:#2b5e2d; stroke:none;" d="M185 360L187 363L185 360M366 360L367 361L366 360M368 360L367 364L368 364L370 361L368 360M61 363L63 364L64 364L62 361L61 363z"/>
<path style="fill:#4daf51; stroke:none;" d="M184 361L185 362L184 361M62 362L63 363L62 362z"/>
<path style="fill:#020202; stroke:none;" d="M106 362L107 363L106 362z"/>
<path style="fill:#4daf51; stroke:none;" d="M185 362L186 363L185 362z"/>
<path style="fill:#2b5e2d; stroke:none;" d="M236 363L237 364L236 363M64 364L65 365L64 364M365 366L365 367L371 365L365 366M65.3333 365.667L65.6667 366.333L65.3333 365.667M235 365L236 366L235 365M67 366L66 368L68 368L67 366M230 368L231 369L233 366L230 368M363 367L360 371L362 370L362 371L357 377L364 378L369 377L369 376L365 376L369 371L367 373L365 367L363 367z"/>
<path style="fill:#4daf51; stroke:none;" d="M376 367L375 371L376 371L376 367z"/>
<path style="fill:#9e9f9e; stroke:none;" d="M183 368L184 369L183 368z"/>
<path style="fill:#2b5e2d; stroke:none;" d="M228 368L231 370L231 369L228 368M374 368L375 369L374 368M69 369L71 371L69 369z"/>
<path style="fill:#020202; stroke:none;" d="M70 369L71 370L70 369z"/>
<path style="fill:#2b5e2d; stroke:none;" d="M182 369L183 370L182 369M222 369L223 370L222 369z"/>
<path style="fill:#9e9f9e; stroke:none;" d="M181 370L182 373L183 373L184 370L181 370M218 370L215 375L213 374L213 375L213 376L213 377L218 370z"/>
<path style="fill:#4daf51; stroke:none;" d="M361 370L362 371L361 370M363 370L364 371L363 370M176 371L177 372L176 371z"/>
<path style="fill:#2b5e2d; stroke:none;" d="M219 371L213 377L214 375L213 375L210 379L215 379L214 377L222 373L219 371M226.667 371.333L227.333 371.667L226.667 371.333z"/>
<path style="fill:#020202; stroke:none;" d="M360.667 371.333L361.333 371.667L360.667 371.333z"/>
<path style="fill:#2b5e2d; stroke:none;" d="M71.6667 372.333L72.3333 372.667L71.6667 372.333M176 372L178 376L178 372L176 372z"/>
<path style="fill:#4daf51; stroke:none;" d="M217 372L218 373L217 372M219 372L220 373L219 372z"/>
<path style="fill:#2b5e2d; stroke:none;" d="M225 372L226 373L225 372z"/>
<path style="fill:#020202; stroke:none;" d="M362 372L363 373L362 372z"/>
<path style="fill:#4daf51; stroke:none;" d="M365 372L366 373L365 372z"/>
<path style="fill:#020202; stroke:none;" d="M366 372L367 373L366 372z"/>
<path style="fill:#2b5e2d; stroke:none;" d="M371 372L372 373L371 372M73 374L74 375L73 374z"/>
<path style="fill:#020202; stroke:none;" d="M217.667 374.333L218.333 374.667L217.667 374.333z"/>
<path style="fill:#4daf51; stroke:none;" d="M360 374L361 375L360 374z"/>
<path style="fill:#2b5e2d; stroke:none;" d="M370 374L371 375L370 374z"/>
<path style="fill:#9e9f9e; stroke:none;" d="M182 375L183 376L182 375z"/>
<path style="fill:#4daf51; stroke:none;" d="M215 375L216 376L215 375z"/>
<path style="fill:#9e9f9e; stroke:none;" d="M199 379L203 379L203 376L199 379M210.333 376.667L210.667 377.333L210.333 376.667z"/>
<path style="fill:#020202; stroke:none;" d="M216 376L217 377L216 376z"/>
<path style="fill:#2b5e2d; stroke:none;" d="M370 376L370 378L372 376L370 376M76 377L77 378L76 377M181 377L182 378L181 377z"/>
<path style="fill:#9e9f9e; stroke:none;" d="M205 378L205 379L209 379L205 378z"/>
<path style="fill:#020202; stroke:none;" d="M214.667 377.333L215.333 377.667L214.667 377.333z"/>
<path style="fill:#2b5e2d; stroke:none;" d="M360 377L361 379L362 379L363 377L360 377M176 378L176 382L177 382L176 378z"/>
<path style="fill:#4daf51; stroke:none;" d="M200 378L201 379L200 378z"/>
<path style="fill:#2b5e2d; stroke:none;" d="M207 378L208 379L207 378z"/>
<path style="fill:#020202; stroke:none;" d="M206 380L206 381L212 380L206 380z"/>
<path style="fill:#2b5e2d; stroke:none;" d="M356 380L360 379L356 380M200 380L200 384L208 382L200 380z"/>
<path style="fill:#4daf51; stroke:none;" d="M202 379L203 380L202 379M205 379L205 380L208 380L205 379z"/>
<path style="fill:#2b5e2d; stroke:none;" d="M77 380L78 381L77 380M196 382L199 381L196 382M210 380L211 381L210 380M358 380L359 383L355 383L355 384L360 386L363 382L358 380z"/>
<path style="fill:#9e9f9e; stroke:none;" d="M195 381L196 382L195 381z"/>
<path style="fill:#020202; stroke:none;" d="M192 383L192 386L201 381L192 383M202 381L203 382L202 381z"/>
<path style="fill:#2b5e2d; stroke:none;" d="M176 384L179 384L178 382L176 384z"/>
<path style="fill:#9e9f9e; stroke:none;" d="M191 382L192 383L191 382z"/>
<path style="fill:#2b5e2d; stroke:none;" d="M192 382L193 383L192 382M80 383L81 384L80 383M183 383L184 384L183 383z"/>
<path style="fill:#9e9f9e; stroke:none;" d="M184 383L185 384L184 383M187 383L188 384L187 383M189 383L190 384L189 383z"/>
<path style="fill:#2b5e2d; stroke:none;" d="M190 383L188 384L189 387L193 384L190 383z"/>
<path style="fill:#4daf51; stroke:none;" d="M191 383L192 384L191 383z"/>
<path style="fill:#2b5e2d; stroke:none;" d="M179 384L180 385L179 384M185 384L187 386L187 384L185 384z"/>
<path style="fill:#4daf51; stroke:none;" d="M189 384L190 385L189 384z"/>
<path style="fill:#2b5e2d; stroke:none;" d="M354 384L350 387L350 388L356 385L354 384M82 385L83 386L82 385M178 385L177 386L177 387L178 388L179 388L180 387L180 386L178 385M184 385L185 386L184 385M193 385L193 386L196 386L193 385M84 386L84 388L86 388L84 386M181 386L182 387L181 386M180 388L181 389L180 388M347 391L353 391C350.967 388.359 348.9 388.237 347 391M88 390L89 391L88 390z"/>
<path style="fill:#020202; stroke:none;" d="M118 390L119 391L118 390z"/>
<path style="fill:#2b5e2d; stroke:none;" d="M89 391L90 392L89 391M90 394L93 394L92 392L90 394M344 392L345 393L344 392M349 392L349 395L352 392L349 392z"/>
<path style="fill:#4daf51; stroke:none;" d="M350 392L351 393L350 392M349 393L350 394L349 393z"/>
<path style="fill:#2b5e2d; stroke:none;" d="M93 394L94 395L93 394M344 394L343 398L342 398L341 395L341 399L338 400L338 401L348 395L344 394M94.6667 395.333L95.3333 395.667L94.6667 395.333M96 396L98 399L96 396z"/>
<path style="fill:#020202; stroke:none;" d="M342 397L343 398L342 397z"/>
<path style="fill:#4daf51; stroke:none;" d="M347 397L348 398L347 397z"/>
<path style="fill:#2b5e2d; stroke:none;" d="M100 399L101 400L100 399M102 400L105 402L102 400M337 401L338 402L337 401M105 402L105 404L107 404L107 402L105 402M333 406L340 406L341 402L333 406M107 404L111 407L107 404z"/>
<path style="fill:#020202; stroke:none;" d="M339 404L340 405L339 404M241 405L242 406L241 405z"/>
<path style="fill:#2b5e2d; stroke:none;" d="M332 406L333 407L332 406M112 407L115 409L115 408L112 407z"/>
<path style="fill:#020202; stroke:none;" d="M113 407L114 408L113 407z"/>
<path style="fill:#2b5e2d; stroke:none;" d="M331 407L332 408L331 407M330 408L330 410L332 410L330 408M327 410L327 411L330 411L330 410L327 410z"/>
<path style="fill:#020202; stroke:none;" d="M328 410L329 411L328 410z"/>
<path style="fill:#2b5e2d; stroke:none;" d="M127 411C128.87 413.885 130.783 413.892 134 413L134 412L127 411M322 413L325 412L322 413M326 411L327 412L326 411M123 412L124 413L123 412z"/>
<path style="fill:#020202; stroke:none;" d="M128 412L129 413L128 412z"/>
<path style="fill:#2b5e2d; stroke:none;" d="M318 412L319 413L318 412z"/>
<path style="fill:#4daf51; stroke:none;" d="M131 413L132 414L131 413z"/>
<path style="fill:#2b5e2d; stroke:none;" d="M135 413L136 414L135 413M138 414L138 415L145 416L138 414M317 413L318 414L317 413M321 413L322 414L321 413z"/>
<path style="fill:#020202; stroke:none;" d="M140 414L141 415L140 414M142 414L143 415L142 414z"/>
<path style="fill:#2b5e2d; stroke:none;" d="M305 414L305 416L307 416L307 414L305 414M311.667 414.333L312.333 414.667L311.667 414.333M319 414L320 415L319 414M145 416L146 417L145 416M151.667 416.333L152.333 416.667L151.667 416.333M149 417L150 418L149 417M153 417C154.947 419.231 157.053 419.231 159 417L153 417M151 418L152 419L151 418M303 418L304 419L303 418M305 418L306 419L305 418M300 422L299 422L296 420C297.135 426.813 302.058 421.515 304 422C302.722 419.102 300.75 418.517 300 422M304 419L305 420L304 419M169 421L171 424L175 422L169 421z"/>
<path style="fill:#020202; stroke:none;" d="M299.333 420.667L299.667 421.333L299.333 420.667M301 420L302 421L301 420M170 421L171 422L170 421z"/>
<path style="fill:#2b5e2d; stroke:none;" d="M279 426L279 428L289 425L291 426L291 424L294 425L295 421L279 426z"/>
<path style="fill:#4daf51; stroke:none;" d="M173 422L174 423L173 422z"/>
<path style="fill:#2b5e2d; stroke:none;" d="M175 422L176 425L177 425L178 422L175 422M173 423L174 424L173 423z"/>
<path style="fill:#4daf51; stroke:none;" d="M299.667 423.333L300.333 423.667L299.667 423.333z"/>
<path style="fill:#2b5e2d; stroke:none;" d="M178 425L178 426L183 429L184 429L186 428L184 425L182 426L182 424L178 425z"/>
<path style="fill:#020202; stroke:none;" d="M249 424L249 425L252 425L249 424z"/>
<path style="fill:#2b5e2d; stroke:none;" d="M296 424L297 425L296 424z"/>
<path style="fill:#020202; stroke:none;" d="M189 425L190 426L189 425M287 425L288 426L287 425z"/>
<path style="fill:#2b5e2d; stroke:none;" d="M186.667 426.333L187.333 426.667L186.667 426.333M188 427L189 428L188 427z"/>
<path style="fill:#020202; stroke:none;" d="M190 427L191 428L190 427z"/>
<path style="fill:#2b5e2d; stroke:none;" d="M191.667 427.333L192.333 427.667L191.667 427.333M186 428L186 430L188 430L186 428M189 431L193 431L191 428L189 431M194 428L196 432L194 428z"/>
<path style="fill:#020202; stroke:none;" d="M195 431L199 428L195 431z"/>
<path style="fill:#2b5e2d; stroke:none;" d="M267 430L272 429L267 430M273 428L274 429L273 428M276 428L276 429L279 429L276 428M279 430L279 431L285 429L279 430z"/>
<path style="fill:#4daf51; stroke:none;" d="M285 428L286 429L285 428z"/>
<path style="fill:#020202; stroke:none;" d="M200 429L199 432L203 431L203 430L200 429z"/>
<path style="fill:#2b5e2d; stroke:none;" d="M201.333 429.667L201.667 430.333L201.333 429.667M257 431L257 432L261 433L262 430L267 431L257 431M275 429L276 430L275 429z"/>
<path style="fill:#4daf51; stroke:none;" d="M284 429L280 431L280 432L284 429z"/>
<path style="fill:#020202; stroke:none;" d="M191 430L192 431L191 430z"/>
<path style="fill:#2b5e2d; stroke:none;" d="M197 430L202 434L204 433L207 431L207 430L199 432L199 430L197 430M206 432L206 433L213 433L206 432z"/>
<path style="fill:#020202; stroke:none;" d="M213 430L213 431L216 431L213 430z"/>
<path style="fill:#2b5e2d; stroke:none;" d="M256 430L257 431L256 430z"/>
<path style="fill:#4daf51; stroke:none;" d="M191 431L192 432L191 431M196 431L194 432L194 433L196 431z"/>
<path style="fill:#2b5e2d; stroke:none;" d="M216 431L219 436L223 432L216 431M244 431L245 432L244 431M236 434L232 432C234.257 435.481 237.269 435.09 241 434L242 437L243 437L242 434L247 436L252 433C247.881 430.385 240.557 432.827 236 434M253 431L253 435L258 435L258 434L256 431L253 431z"/>
<path style="fill:#4daf51; stroke:none;" d="M198 432L199 433L198 432M202 432L203 433L202 432z"/>
<path style="fill:#020202; stroke:none;" d="M207 432L207 433L210 433L207 432M217 432L218 433L217 432z"/>
<path style="fill:#2b5e2d; stroke:none;" d="M224.333 432.667L224.667 433.333L224.333 432.667M227 432L228 436L229 433L230 433L230 435C230.951 432.493 229.348 432.294 227 432z"/>
<path style="fill:#020202; stroke:none;" d="M246 432L247 433L246 432M246 435L254 434L246 435z"/>
<path style="fill:#4daf51; stroke:none;" d="M199.667 433.333L200.333 433.667L199.667 433.333z"/>
<path style="fill:#2b5e2d; stroke:none;" d="M204 433L205 434L204 433M213 433L213 435L215 435L215 433L213 433z"/>
<path style="fill:#4daf51; stroke:none;" d="M234 433L235 434L234 433M250 433L251 434L250 433M261.333 433.667L261.667 434.333L261.333 433.667z"/>
<path style="fill:#2b5e2d; stroke:none;" d="M211 434L212 435L211 434z"/>
<path style="fill:#4daf51; stroke:none;" d="M218 434L219 435L218 434z"/>
<path style="fill:#020202; stroke:none;" d="M242.333 434.667L242.667 435.333L242.333 434.667z"/>
<path style="fill:#2b5e2d; stroke:none;" d="M251 434L249 435L249 436L251 434z"/>
<path style="fill:#020202; stroke:none;" d="M256 434L257 435L256 434z"/>
<path style="fill:#4daf51; stroke:none;" d="M259 434L260 435L259 434z"/>
<path style="fill:#2b5e2d; stroke:none;" d="M222.667 435.333L223.333 435.667L222.667 435.333z"/>
<path style="fill:#4daf51; stroke:none;" d="M227 435L228 436L227 435M243 435L244 438C249.677 438.165 254.754 441.128 258 435L243 435z"/>
<path style="fill:#020202; stroke:none;" d="M244.667 435.333L245.333 435.667L244.667 435.333z"/>
<path style="fill:#4daf51; stroke:none;" d="M231 436L232 437L231 436z"/>
<path style="fill:#2b5e2d; stroke:none;" d="M244 436L245 437L244 436z"/>
</svg>
