<?xml version="1.0" standalone="yes"?>
<svg xmlns="http://www.w3.org/2000/svg" width="211" height="211">
<path style="fill:#030503; stroke:none;" d="M0 0L0 211L211 211L211 0L0 0z"/>
<path style="fill:#3c8c40; stroke:none;" d="M158 8L157 10L158 8M148 9L151 12L148 9z"/>
<path style="fill:#4daf51; stroke:none;" d="M156 9L157 10L156 9z"/>
<path style="fill:#3c8c40; stroke:none;" d="M152 10L153 11L152 10M155 10L156 11L155 10M140 12L139 16L143 14L143 13L140 12M153 12L153 13L157 14L157 13L153 12M149 13L150 14L149 13M158 13L153 16L157 30L158 25C155.842 24.0224 155.499 23.8117 157 22L156 24L157 24L160 24L156 21L160 17L158 13M135 16L137 24C140.184 21.1737 138.035 17.9725 135 16M144 19L152 16L144 19z"/>
<path style="fill:#4daf51; stroke:none;" d="M138 17L137 25L138 39L137 65L135 74L135 79L134.614 104.17L136.119 127L129 165L126 164L125 170L121 170L122 173L118 177L108 177C108.567 179.834 101.964 182.145 103 178C95.3102 178.568 83.8199 175.109 79 169L81 170L81 169L78 169L73 166L67 154L65 152L55 152L54 152L43 152L46 166L56 179C61.1956 180.886 68.4999 188.106 71 193L94 198L106 199C110.91 194.711 116.027 197.643 121.331 195.258C133.632 189.727 142.7 175.071 146 163L144 163L149 157L147 150L152 151L150 147L152 148L153 140L150.667 136L150 111C154.317 110.455 152.333 106.003 151 103C153.261 100.954 152.36 99.5142 150 98L151 88L151 86L152 86L151 75L154 74L152 53C155.11 52.4706 154.596 43.6766 152 42L152 41L158 38L158 37L156 29L155 17L138 17z"/>
<path style="fill:#3c8c40; stroke:none;" d="M139 17L139 18L143 18L139 17z"/>
<path style="fill:#4daf51; stroke:none;" d="M144 17L145 18L144 17z"/>
<path style="fill:#3c8c40; stroke:none;" d="M135 19L134 21L135 19M137 25L134 27L134 28L139 25L137 25M131 27L130 29L132 29L131 27M138 28L137 32L138 28M155 31L158 37L155 31M133 33L134 34L133 33M137 33L138 34L137 33z"/>
<path style="fill:#4daf51; stroke:none;" d="M130.333 35.6667L130.667 36.3333L130.333 35.6667z"/>
<path style="fill:#3c8c40; stroke:none;" d="M137 35L138 36L137 35M134 36L133 39L137 38L137 37L134 36M138 36L139 37L138 36M131 37L132 38L131 37M158 37L158 40L159 40L158 37M137.667 39.3333L138.333 39.6667L137.667 39.3333M156 39L155 41L157 41L156 39M159 40L160 41L159 40M137 41L138 42L137 41M152 41L152 42L155 42L152 41M138 42L139 43L138 42M137 43L134 48L134 49C137.231 47.93 138.241 46.2637 137 43M154 43L155 44L154 43M155 44L156 45L155 44M135 45L136 46L135 45M154 45L152 53L153 64L158 59L155 59L159 48L159 47L154 45M160 47L161 48L160 47z"/>
<path style="fill:#030503; stroke:none;" d="M154.667 48.3333L155.333 48.6667L154.667 48.3333z"/>
<path style="fill:#3c8c40; stroke:none;" d="M159 48L160 49L159 48M137 49L138 50L137 49M158 49L159 50L158 49M160 50L162 53L163 52L162 50L160 50M137 51L138 52L137 51M158 54L158 55L161 55L158 54M136 55L138 58L138 55L136 55M158 57L159 58L158 57M136 58L137 59L136 58z"/>
<path style="fill:#4daf51; stroke:none;" d="M166.333 58.6667L166.667 59.3333L166.333 58.6667z"/>
<path style="fill:#3c8c40; stroke:none;" d="M137 59L136 64L137 59M162 59L163 60L162 59M164.333 61.6667L164.667 62.3333L164.333 61.6667M158 62L159 63L158 62M137 64L138 65L137 64M153 65L153 69L158 67L153 65z"/>
<path style="fill:#4daf51; stroke:none;" d="M156 66L157 67L156 66z"/>
<path style="fill:#3c8c40; stroke:none;" d="M133 67L134 68L133 67M135 68L134 70L134 71L138 68L135 68M159 68L160 69L159 68M153 70L153 72L155 72L155 70L153 70M136 72L137 75L136 72M151 75L152 86L153 86L153 78L158 76L154 77L156 73L151 75M132 74L132 75L135 75L132 74M157 74L158 75L157 74M133 76L137 79L136 75L133 76z"/>
<path style="fill:#4daf51; stroke:none;" d="M154 76L155 77L154 76z"/>
<path style="fill:#3c8c40; stroke:none;" d="M157 79L158 80L157 79M132 80L133 81L132 80M134 80L134 84L135 84L136 80L134 80z"/>
<path style="fill:#030503; stroke:none;" d="M135 81L136 82L135 81z"/>
<path style="fill:#3c8c40; stroke:none;" d="M164.667 81.3333L165.333 81.6667L164.667 81.3333z"/>
<path style="fill:#4daf51; stroke:none;" d="M165 82L165 84L167 82L165 82z"/>
<path style="fill:#3c8c40; stroke:none;" d="M150 84L149 88L150 84M165 84L166 85L165 84M153 88L156 88L155 86L153 88M135 87L136 88L135 87M157 87L158 88L157 87M151.667 88.3333L152.333 88.6667L151.667 88.3333M150 89L150 98L154 98L153 91L150 89M133 91L135 93L135 91L133 91M154 91L153 93L155 93L154 91M158 91L159 92L158 91M133.667 94.3333L134.333 94.6667L133.667 94.3333M154 94L155 95L154 94z"/>
<path style="fill:#4daf51; stroke:none;" d="M152 95L153 96L152 95z"/>
<path style="fill:#3c8c40; stroke:none;" d="M134 97L135 98L134 97M134 99L133 104L134 99M153 99L154 100L153 99M151 103L151 104L154 104L154 105L152 113L151 111L150 111L150 116L154 115L154 114L152 113L156 111L156 106L156 105L154 102L151 103M162 102L161 104L162 102M164 103L165 104L164 103z"/>
<path style="fill:#030503; stroke:none;" d="M152.667 104.333L153.333 104.667L152.667 104.333z"/>
<path style="fill:#3c8c40; stroke:none;" d="M132.667 105.333L133.333 105.667L132.667 105.333z"/>
<path style="fill:#030503; stroke:none;" d="M154 105L155 106L154 105z"/>
<path style="fill:#3c8c40; stroke:none;" d="M135 107L137 112L135 107M133 108L134 109L133 108z"/>
<path style="fill:#030503; stroke:none;" d="M153 109L154 110L153 109z"/>
<path style="fill:#3c8c40; stroke:none;" d="M151 110L152 111L151 110z"/>
<path style="fill:#030503; stroke:none;" d="M151 112L152 113L151 112z"/>
<path style="fill:#3c8c40; stroke:none;" d="M154 112L155 113L154 112M136 113L137 114L136 113M135 114L133 123L136 124L135 114M157.333 114.667L157.667 115.333L157.333 114.667M154 115L155 116L154 115M151 117L152 121L153 121L153 117L151 117M154 117L155 118L154 117M157 118L157 119L161 119L157 118z"/>
<path style="fill:#4daf51; stroke:none;" d="M153 120L154 121L153 120z"/>
<path style="fill:#3c8c40; stroke:none;" d="M155.333 120.667L155.667 121.333L155.333 120.667M164 120L165 121L164 120M151 121L152 122L151 121M162 121L163 122L162 121M152 122L153 123L152 122M151 123L152 127L157 126L157 125L151 123M164 123L163 125L164 123M133 126L137 128C136.386 125.149 135.697 125.146 133 126M159 125L162 129L159 125M150 126L151 127L150 126M165 126L166 127L165 126M157.333 127.667L157.667 128.333L157.333 127.667z"/>
<path style="fill:#4daf51; stroke:none;" d="M159 127L160 128L159 127z"/>
<path style="fill:#3c8c40; stroke:none;" d="M163 127L164 128L163 127M150 128L151 132L152 132L152 128L150 128M165 128L166 129L165 128M135 129L136 130L135 129M133.667 130.333L134.333 130.667L133.667 130.333M153 130L154 131L153 130z"/>
<path style="fill:#4daf51; stroke:none;" d="M154 130L155 131L154 130M165 131L161 134L161 135L164 134L165 141L166 141L165 131z"/>
<path style="fill:#3c8c40; stroke:none;" d="M134 132L133 136L134 136L134 132M152 132L153 136L154 136L155 132L152 132M155 134L158 132L155 134M160.333 132.667L160.667 133.333L160.333 132.667z"/>
<path style="fill:#4daf51; stroke:none;" d="M159 133L160 134L159 133z"/>
<path style="fill:#3c8c40; stroke:none;" d="M151 134L150 138L151 134M157 134L158 135L157 134M163 134L164 135L163 134M161 135L162 136L161 135M164 135L165 136L164 135M134 136L135 137L134 136M167 136L168 137L167 136M133 137L135 140L133 137M163.667 138.333L164.333 138.667L163.667 138.333M154 139C151.895 142.211 149.44 146.181 154 148L155 145L153 142L156 140L154 139M157 140L157 141L163 140L157 140z"/>
<path style="fill:#6eda6e; stroke:none;" d="M165 139L166 140L165 139z"/>
<path style="fill:#3c8c40; stroke:none;" d="M151 140L152 141L151 140z"/>
<path style="fill:#030503; stroke:none;" d="M154 140L155 141L154 140z"/>
<path style="fill:#01ff01; stroke:none;" d="M166 140L167 141L166 140z"/>
<path style="fill:#3c8c40; stroke:none;" d="M133 141L133 146L134 146L133 141z"/>
<path style="fill:#030503; stroke:none;" d="M152 141L153 142L152 141z"/>
<path style="fill:#3c8c40; stroke:none;" d="M162 141L163 142L162 141M156 143L155 148L159 143L156 143M49 145L47 147L47 148C49.3125 147.402 50.3402 147.151 49 145M53 145L54 146L53 145M131 145L132 146L131 145M161 145L159 148L161 145M132 146L130 150L129 157C132.154 154.088 134.264 149.997 132 146z"/>
<path style="fill:#030503; stroke:none;" d="M152 146L153 147L152 146z"/>
<path style="fill:#4daf51; stroke:none;" d="M158 146L159 147L158 146z"/>
<path style="fill:#3c8c40; stroke:none;" d="M53 147L54 148L53 147M150.333 147.667L150.667 148.333L150.333 147.667M61 148L62 149L61 148M65 148L66 149L65 148M162 148L163 150L164 150L165 148L162 148M57 149L58 150L57 149M151 149L152 150L151 149M159 149L160 150L159 149M43 150L51 153L51 152L43 150M54 151L62 153L59 152L59 151L61 151L54 151M147 150L149 155L149 152L152 153L151 150L147 150z"/>
<path style="fill:#4daf51; stroke:none;" d="M164.333 150.667L164.667 151.333L164.333 150.667z"/>
<path style="fill:#3c8c40; stroke:none;" d="M52 151L51 154C53.1579 153.022 53.5007 152.812 52 151M65 151L65 155L66 155L65 151z"/>
<path style="fill:#030503; stroke:none;" d="M148 151L149 152L148 151M65 152L66 153L65 152z"/>
<path style="fill:#3c8c40; stroke:none;" d="M42 153L43 154L42 153M43 154L40 161L46 161L46 158L43 154M67.3333 154.667L67.6667 155.333L67.3333 154.667M75 154L74 156L75 154M149 155L151 158L149 155M67 158L70 156L67 158M71.6667 156.333L72.3333 156.667L71.6667 156.333M41 157L42 158L41 157M146 157L145 161L149 160L149 157L146 157M158 157L159 158L158 157z"/>
<path style="fill:#030503; stroke:none;" d="M43 159L43 161L45 161L43 159M45 159L46 160L45 159z"/>
<path style="fill:#3c8c40; stroke:none;" d="M70 159L70 161L72 161L72 159L70 159M73 160L73 166L77 166L77 161L73 160M128.333 160.667L128.667 161.333L128.333 160.667M130 160L131 161L130 160M156 160L157 161L156 160M159 160L160 164L160 163L158 162L159 160z"/>
<path style="fill:#4daf51; stroke:none;" d="M160 160L159 169L160 169L160 160z"/>
<path style="fill:#3c8c40; stroke:none;" d="M78 161L81 163L78 161M152 161L153 162L152 161z"/>
<path style="fill:#4daf51; stroke:none;" d="M40 162L41 163L40 162z"/>
<path style="fill:#3c8c40; stroke:none;" d="M41 162L42 163L41 162M144.667 162.333L145.333 162.667L144.667 162.333z"/>
<path style="fill:#030503; stroke:none;" d="M158.667 162.333L159.333 162.667L158.667 162.333z"/>
<path style="fill:#3c8c40; stroke:none;" d="M44 163L47 165L47 164L44 163M127 163L127 165L129 165L129 163L127 163M149 163L150 164L149 163z"/>
<path style="fill:#4daf51; stroke:none;" d="M150 163L151 164L150 163z"/>
<path style="fill:#3c8c40; stroke:none;" d="M151 163L152 164L151 163M125 164L125 166L127 166L125 164M145 164L144 171L145 171L148 167L145 164M47 165L48 166L47 165M150 165L150 166L155 168L155 167L150 165M158 165L156 166L159 169L158 165M44 166L43 169C45.5655 168.449 45.8602 167.86 44 166M46 166L47 167L46 166M77 166L78 167L77 166M120 166L121 167L120 166M148 166L149 167L148 166z"/>
<path style="fill:#4daf51; stroke:none;" d="M157 166L158 167L157 166z"/>
<path style="fill:#3c8c40; stroke:none;" d="M47 169L50 167L47 169M78.3333 167.667L78.6667 168.333L78.3333 167.667M80 167L80 169L82 167L80 167M124 167L125 168L124 167M149 167L150 168L149 167z"/>
<path style="fill:#030503; stroke:none;" d="M158 167L159 168L158 167z"/>
<path style="fill:#3c8c40; stroke:none;" d="M83 168L84 169L83 168M85 168L86 169L85 168M156 168L157 169L156 168M79 169C81.1217 173.059 84.4705 174.816 89 175L83 169L79 169M90 169L91 170L90 169M93 169L94 170L93 169M121 169L121 170L125 170L121 169M149 169L150 170L149 169z"/>
<path style="fill:#01ff01; stroke:none;" d="M158 169L159 170L158 169z"/>
<path style="fill:#3c8c40; stroke:none;" d="M49 170L47 174L47 175L50 177L47 176C50.2543 180.774 57.5242 183.573 63 185L57 180L56 179L57 177L51 175L51 170L49 170z"/>
<path style="fill:#030503; stroke:none;" d="M80 170L81 171L80 170z"/>
<path style="fill:#3c8c40; stroke:none;" d="M87 170L88 171L87 170M89 172C91.3962 172.575 91.487 172.475 92 170L89 172M156 170L157 171L156 170z"/>
<path style="fill:#4daf51; stroke:none;" d="M44 171L45 172L44 171z"/>
<path style="fill:#3c8c40; stroke:none;" d="M45 171L46 172L45 171z"/>
<path style="fill:#030503; stroke:none;" d="M49 171L50 172L49 171z"/>
<path style="fill:#3c8c40; stroke:none;" d="M93 171L95 173L93 171M99 171L102 173L102 172L99 171M119 171L122 173L119 171M150 171L154 175L150 171M87 172L88 173L87 172M144 172L144 174L146 172L144 172z"/>
<path style="fill:#4daf51; stroke:none;" d="M155 172L150 180C153.074 178.123 155.549 175.772 155 172z"/>
<path style="fill:#030503; stroke:none;" d="M50 173L51 174L50 173z"/>
<path style="fill:#3c8c40; stroke:none;" d="M89 173L90 174L89 173M94 175L94 177L95 178L103 176L100 177L101 174L94 175M112 174L109 177L109 178L118 177L120 174L112 174z"/>
<path style="fill:#4daf51; stroke:none;" d="M46 174L47 175L46 174z"/>
<path style="fill:#030503; stroke:none;" d="M51.6667 174.333L52.3333 174.667L51.6667 174.333M98 174L98 177L99 177L98 174z"/>
<path style="fill:#3c8c40; stroke:none;" d="M102 174L103 175L102 174M142 174L144 177L142 174M155 174L156 175L155 174z"/>
<path style="fill:#4daf51; stroke:none;" d="M47 175L48 176L47 175z"/>
<path style="fill:#030503; stroke:none;" d="M48.6667 175.333L49.3333 175.667L48.6667 175.333z"/>
<path style="fill:#3c8c40; stroke:none;" d="M90.6667 175.333L91.3333 175.667L90.6667 175.333z"/>
<path style="fill:#4daf51; stroke:none;" d="M49 176L50 177L49 176z"/>
<path style="fill:#030503; stroke:none;" d="M51 176L57 181L57 180L54 179L51 176z"/>
<path style="fill:#3c8c40; stroke:none;" d="M105 176L106 177L105 176M140 176L141 177L140 176M147 177L147 178L153 177L147 177M93 177L94 178L93 177M104 177L102 180L109 178L104 177M141 177L142 178L141 177z"/>
<path style="fill:#6eda6e; stroke:none;" d="M153 177L154 178L153 177z"/>
<path style="fill:#030503; stroke:none;" d="M101 178L102 179L101 178M57 179L58 180L57 179z"/>
<path style="fill:#3c8c40; stroke:none;" d="M137 179L134 185C136.521 183.282 138.031 182.069 137 179M139 179L140 180L139 179z"/>
<path style="fill:#01ff01; stroke:none;" d="M151 179L152 180L151 179z"/>
<path style="fill:#3c8c40; stroke:none;" d="M140 180L141 181L140 180M53 182L54 183L53 182z"/>
<path style="fill:#4daf51; stroke:none;" d="M59 182L60 183L59 182z"/>
<path style="fill:#3c8c40; stroke:none;" d="M63 185L63 188L65 187L65 186L63 185M131 186L134 188L133 185L131 186M138 185L136 190L140 189L141 185L138 185M65.6667 187.333L66.3333 187.667L65.6667 187.333M130 187L131 188L130 187M67 188L71 193L67 188M127 195C128.281 190.724 131.031 190.91 135 190C130.767 187.97 120.685 190.492 127 195M63 189L64 190L63 189z"/>
<path style="fill:#030503; stroke:none;" d="M128 189L129 190L128 189z"/>
<path style="fill:#4daf51; stroke:none;" d="M131 196L140 189L131 196z"/>
<path style="fill:#3c8c40; stroke:none;" d="M66 190L67 191L66 190M72 190L73 191L72 190z"/>
<path style="fill:#01ff01; stroke:none;" d="M139 190L140 191L139 190M138 191L139 192L138 191z"/>
<path style="fill:#3c8c40; stroke:none;" d="M74 192L72 193L73 196L79 198L80 198L84 197L74 192M78 192L79 193L78 192z"/>
<path style="fill:#030503; stroke:none;" d="M125 192L126 193L125 192z"/>
<path style="fill:#3c8c40; stroke:none;" d="M128.333 192.667L128.667 193.333L128.333 192.667z"/>
<path style="fill:#6eda6e; stroke:none;" d="M136 192L137 193L136 192z"/>
<path style="fill:#3c8c40; stroke:none;" d="M68.6667 193.333L69.3333 193.667L68.6667 193.333z"/>
<path style="fill:#030503; stroke:none;" d="M73 193L74 194L73 193z"/>
<path style="fill:#4daf51; stroke:none;" d="M125 193L126 194L125 193z"/>
<path style="fill:#030503; stroke:none;" d="M76 194L77 195L76 194M79 194L80 195L79 194z"/>
<path style="fill:#3c8c40; stroke:none;" d="M83 194L84 195L83 194M123 194L124 195L123 194M129 194L131 196L131 194L129 194M84 195L85 196L84 195M113 195L114 196L113 195M120 195L121 196L120 195M122 195L123 196L122 195z"/>
<path style="fill:#01ff01; stroke:none;" d="M132 195L133 196L132 195z"/>
<path style="fill:#3c8c40; stroke:none;" d="M86 196L86 199L88 198L88 197L86 196M89 196L91 198L89 196z"/>
<path style="fill:#030503; stroke:none;" d="M90.6667 196.333L91.3333 196.667L90.6667 196.333z"/>
<path style="fill:#3c8c40; stroke:none;" d="M92.6667 196.333L93.3333 196.667L92.6667 196.333M109 196L109 197L113 197L109 196M114 196L114 197L120 197L114 196z"/>
<path style="fill:#6eda6e; stroke:none;" d="M130 196L131 197L130 196z"/>
<path style="fill:#4daf51; stroke:none;" d="M91 197L92 198L91 197z"/>
<path style="fill:#3c8c40; stroke:none;" d="M95.6667 197.333L96.3333 197.667L95.6667 197.333M101 197L102 198L101 197M106 197L108 199L108 197L106 197M121 197L122 198L121 197M125 197L127 199L125 197M94 198L95 199L94 198M97 198L97 199L101 199L97 198M103 198L104 199L103 198M84 199L85 200L84 199M101.333 199.667L101.667 200.333L101.333 199.667M98.3333 201.667L98.6667 202.333L98.3333 201.667z"/>
</svg>
